<?xml version="1.0" encoding="utf-8"?>
<!-- Generator: Adobe Illustrator 19.1.0, SVG Export Plug-In . SVG Version: 6.00 Build 0)  -->
<svg version="1.1" id="Layer_1" xmlns="http://www.w3.org/2000/svg" xmlns:xlink="http://www.w3.org/1999/xlink" x="0px" y="0px"
	 viewBox="0 0 218 287.5" style="enable-background:new 0 0 218 287.5;" xml:space="preserve">
<style type="text/css">
	.st0{fill:#9E9E9E;stroke:#020202;stroke-miterlimit:10;}
	.st1{fill:#89992B;stroke:#050505;stroke-miterlimit:10;}
	.st2{fill:#3F3F3F;}
	.st3{fill:#6B6863;}
	.st4{fill:#3A3A3A;}
	.st5{fill:#3B3B3B;}
	.st6{fill:#FDFDFD;}
	.st7{fill:#323333;}
	.st8{fill:#FAFCFC;}
	.st9{fill:#434343;}
	.st10{fill:#0BD3FD;}
	.st11{fill:#414141;}
	.st12{fill:#4D4D4D;}
</style>
<g>
	<path class="st0" d="M36,127.5c-1.8-0.4-3.2-1.5-4-3.1c-3-5.3-5.8-10.6-8.8-15.9c-0.8-1.4-0.8-2.7-0.1-4.3
		c2.6-6.2,4.9-12.5,7.5-18.7c1.2-2.8,3.6-4.7,5.3-7.1c2.4-3.2,4.8-6.3,7.4-9.3c1-1.1,1.1-2.3,1.2-3.6c0.3-8.3-0.5-16.6-0.5-24.9
		c0-0.7-0.4-1.7,0.3-2.1c0.7-0.4,1.3,0.4,2,0.7c9.4,5.3,18.9,10.5,28.3,15.9c1.2,0.7,2.1,0.2,3.1-0.1c5.4-1.5,10.7-3,16-4.7
		c2.1-0.7,4.3-0.8,6.4-1c6-0.6,12.1-1.1,18.1-1c10.4,0.1,20.7,1.1,30.5,4.9c3.3,1.3,6.8,2,10.2,3.1c1.2,0.4,2,0,3-0.6
		c8.5-5.5,17-11,25.6-16.4c0.5-0.3,1-1.2,1.7-0.8c0.8,0.5,0.4,1.4,0.3,2.1c-0.5,5.5-1,11-1.4,16.6c-0.3,4.1-0.7,8.2-1,12.4
		c-0.1,1,0.2,1.9,0.7,2.8c3,5,6,10.2,9,15.2c0.6,1,1,2,0.6,3c-1.9,5.7-3.4,11.5-4.9,17.4c-0.1,0.2-0.2,0.4-0.4,0.7
		c-1.1-0.7-1,0.5-1.2,0.9c-1.6,3.2-3.4,6.4-4.5,9.7c-1.5,4.6-4.3,6.7-9.2,7.4c-9.6,1.3-19,4.2-28.7,5.3c-7.3,0.9-14.6,1.4-21.9,2
		c-12.4,1.1-24.8,2.7-37.4,2.2c-9.1-0.4-18.1-0.4-27.2-0.4c-3.8,0-7.3-0.6-10.8-2.3c-4.2-2.1-8.5-3.8-12.8-5.6
		C37.8,127.3,36.9,126.3,36,127.5z M48.5,51.9c-1.1,2-0.2,4.1-0.4,6.1C48,58.6,47,58.3,47,59.1c0,2.2,0,4.5,0.1,6.7
		c0,0.5,0.2,1.2,0.8,1.1c1.9-0.3,3.9-0.4,5.7-1.2c1.1-0.5,0.2-2.1,0.5-3.2c1.2-0.3,2.4-0.8,3.6-0.9c1.9-0.2,1.7-1,0.9-2.3
		c-1.9-2.7-3.8-5.5-5.7-8.2c-1.3-1.9-2.6-3.9-3.9-5.8c-0.2,0.1-0.3,0.1-0.5,0.2C48.5,47.6,48.5,49.8,48.5,51.9z M46.7,80
		c2.8,7.4,5.5,14.6,8.1,21.7c0.4,1.1,0.7,1.8,2.2,1.8c11.9-0.1,23.8-0.1,35.7,0c1.2,0,1.7-0.3,1.9-1.6c0.6-3.8,1.5-7.5,2.1-11.3
		c0.2-1.5,0.8-1.9,2.2-2c5.6-0.3,11.1-0.7,16.7-1.2c1.2-0.1,1.8,0.3,2.2,1.4c0.9,2.8,2.1,5.4,2.9,8.2c0.4,1.4,1.1,1.9,2.6,1.9
		c10.5-0.1,21-0.1,31.5,0c1.3,0,2.1-0.3,2.7-1.5c2.9-5.9,5.9-11.8,8.9-17.6c0.9-1.7,0.5-2.1-1.3-2.1c-6.4-0.3-12.8-0.7-19.2-1
		c-10.4-0.6-20.8-1.1-31.2-1.7c-1.7-0.1-2.2,0.2-1.4,2c1,2.2,1.7,4.6,2.6,7.2c-2.3,0-4.1,0-5.9,0c-1.9,0-3.8,0.2-5.7,0.3
		c-2,0-4.8,0.8-5.8-0.2c-1.3-1.3,0.2-3.8,0.6-5.8c0.3-1.7-0.3-1.7-1.6-1.6c-3.6,0.3-7.2,0.4-10.7,0.6C73.6,78.3,60.3,79.2,46.7,80z
		 M103,108.2c0,0.6,0,1.2,0,1.7c0.2,2.5-1.1,5.7,0.5,7.2c1.5,1.4,4.8,0.2,7.2,0.4c1.4,0.1,1.8-0.2,1.5-1.8
		c-0.9-4.1-1.5-8.2-2.2-12.2c-0.8-4.7-0.8-4.7-5.4-4.5c-1.4,0-1.6,0.6-1.6,1.8C103.1,103.2,103,105.7,103,108.2z M181.5,50.4
		c-0.2-0.1-0.4-0.1-0.5-0.2c-2.4,4.2-4.7,8.4-7.1,12.6c-0.3,0.5-0.2,1,0.2,1.3c2,2.1,4.1,4.1,6.2,6.1c0.6,0.6,1.3,0.6,1.3-0.4
		C181.5,63.4,181.5,56.9,181.5,50.4z M94.2,129.9c5.6,0,5.6,0,8.4-3.8c0.9-1.1,1.8-2.2,2.9-3.6c0.7,1.9,1.2,3.3,1.9,5.2
		c0.4-3.4-0.4-6-0.9-9.1C102.3,122.5,98.5,126,94.2,129.9z M89,113.2c-0.2-1.2-0.8-2.1-2.1-2.2c-1.3-0.1-2.2,0.7-2.4,2
		c-0.1,1.5,0.7,2.4,2.2,2.4C88.1,115.5,88.8,114.7,89,113.2z M129.5,118.1c0-1.2-0.6-2-1.8-2.1c-1.3-0.1-2.1,0.6-2.2,1.9
		c-0.1,1.2,0.6,1.9,1.7,2.1C128.6,120.1,129.3,119.4,129.5,118.1z M136.5,112.2c-0.2-1.2-1-1.7-2.1-1.7c-1,0-1.8,0.6-1.8,1.7
		c0,1.2,0.8,1.8,2,1.8C135.7,114,136.4,113.4,136.5,112.2z M73,110.6c-1.1,0.2-1.5,0.9-1.5,1.9c0,1,0.3,1.9,1.4,1.9
		c1.1,0,1.5-0.9,1.5-1.9C74.5,111.5,74.1,110.8,73,110.6z M126,109.9c-0.2-1-0.8-1.4-1.7-1.4c-0.9,0-1.7,0.5-1.6,1.4
		c0,1.1,0.8,1.6,1.8,1.5C125.3,111.4,125.9,110.9,126,109.9z M77.5,121.6c0.1,0.9,0.7,1.3,1.5,1.4c0.9,0.1,1.8-0.1,1.9-1.1
		c0.1-0.9-0.6-1.3-1.4-1.3C78.6,120.4,77.9,120.7,77.5,121.6z"/>
	<path class="st1" d="M167.1,180c1.4,13.2,2.9,26.3,4.4,39.5c0.2,1.6-0.1,3-1.3,4.3c-2.8,3.1-5.5,6.4-8.2,9.7
		c-1.2,1.4-2.5,2.9-3.7,4.3c-2.6,3-5,6.1-9,7.6c-3.9,1.4-7.5,3.4-11.3,5.2c-2.6,1.1-5.3,2-7.7,3.4c-4.4,2.5-9.1,2.8-13.9,3
		c-3.1,0.1-6.3,0-9.4,0.4c-1.4,0.2-2.7-0.1-4.1-0.7c-3.4-1.5-6.9-2.9-10.3-4.3c-6.3-2.9-12.1-6.6-18.2-9.8c-2.1-1.1-4.3-2.2-5.3-4.6
		c-2.9-6-5.5-12.1-8.8-17.9c-3.5-6.1-4.9-12.6-6.2-19.3c-1.1-5.5-2.3-11-3.4-16.6c-0.2-1-0.1-2.2-0.2-3.2c2.8-9.7,5-19.5,7.2-29.3
		c0.1-0.5,0.3-0.9,0.4-1.4c0.8-4.6,2.2-8.8,6-11.8c7,0.2,14,0.4,20.9,0.6c-0.2,1.1,0.4,2,0.7,2.9c6.8,18.8,13.6,37.5,20.5,56.3
		c1.5,4.1,3,8.2,4.5,12.3c0.2,0,0.4,0,0.6,0c9.4-24.8,18.7-49.6,28.1-74.3c4.2-0.6,8.4-1.2,12.5-1.9c1.1,0.2,1.5,1.1,2.1,1.9
		c3.1,4.6,6.3,9.2,9.4,13.8c0.2,0.6,0.4,1.3,0.5,1.9C165,161.3,166.1,170.6,167.1,180z"/>
	<path class="st0" d="M138,250.5c3.8-1.7,7.4-3.8,11.3-5.2c4-1.5,6.4-4.6,9-7.6c1.2-1.4,2.5-2.9,3.7-4.3c1.6,1.7,3.9,1.4,5.9,1.9
		c3.3,0.9,6.8,1.5,10.2,2.2c1.2,0.3,1.9,0.8,2,2.3c0.3,3.2,1.9,6.1,3.4,8.7c2.8,4.9,2.2,8.9-0.3,13.9c-2.3,4.6-4.7,6.6-9.9,6.1
		c-5.3-0.5-10.8-0.2-16.2-0.1c-2,0-3.7-0.5-5.3-1.6c-2.6-1.9-5.1-4-8-5.4c-4.3-2.1-5.2-5.8-5.7-9.9C138,251.2,138,250.9,138,250.5z"
		/>
	<path class="st0" d="M69,238c1,2.4,3.2,3.5,5.3,4.6c6.1,3.2,11.9,6.9,18.2,9.8c-1.7,4.7-3.4,9.3-5,14c-0.5,1.5-1.3,2.1-2.9,2.1
		c-6.4-0.1-12.8,0-19.2,0c-1.1,0-2.1-0.3-3-1c-3.5-2.4-7-4.8-10.5-7.1c-1.3-0.9-1.7-1.8-0.7-3.3c2.7-4.4,5.3-8.8,8-13.2
		c0.6-1,1.5-1.7,2.6-2.2C64.1,240.4,66.6,239.2,69,238z"/>
	<path class="st0" d="M167.1,180c-1-9.4-2-18.8-3.1-28.1c-0.1-0.6-0.3-1.3-0.5-1.9c5.6-1.5,11.2-3,16.7-4.7c1.4-0.4,2.1-0.2,2.8,1.1
		c2.3,4.5,4.7,9,7.2,13.4c0.9,1.6,0.9,2.8,0,4.4c-3.1,5.8-6.2,11.5-9.2,17.4c-1,1.9-2.1,2.2-4,1.5C173.8,182,170.4,181,167.1,180z
		 M166.6,158.7c0.5,2.2,1,4.3,1.4,6.4c0.6,2.8,2.4,3.8,5.1,3c0.4-0.1,0.8-0.3,0.8-0.8c-0.1-2.8,0.9-6-0.4-8.3
		c-0.8-1.4-4-0.3-6.1-0.4C167.2,158.5,167,158.6,166.6,158.7z M180.2,158c0.8,2.3,1.4,4.3,2.2,6.8c1.3-1.4,2.2-2.7,3.4-3.7
		c1-0.8,0-1.4,0.1-2.1c0-1-0.7-0.9-1.4-0.9C183.1,158,181.8,158,180.2,158z M177.9,170.1c-1.5,2.1-2.4,4.2-3.4,6.8
		c1.5-0.6,3.4,0.9,3.7-1.1C178.6,174,178.7,172.2,177.9,170.1z M179.2,154.8c0.4-1.2,3-1.2,1.7-3.1c-0.4-0.6-1.1-1.9-2.1-1.1
		C177.2,151.9,178.9,153.3,179.2,154.8z"/>
	<path class="st2" d="M85,139c-7-0.2-14-0.4-20.9-0.6c-7,0.7-12.8-2-18.5-5.7c-3-2-6.4-3.5-9.6-5.3c0.9-1.2,1.8-0.2,2.6,0.1
		c4.3,1.8,8.6,3.6,12.8,5.6c3.5,1.7,7,2.4,10.8,2.3c9.1,0,18.2,0,27.2,0.4c12.5,0.5,24.9-1.1,37.4-2.2c7.3-0.6,14.6-1.2,21.9-2
		c9.7-1.2,19.1-4,28.7-5.3c4.9-0.7,7.6-2.8,9.2-7.4c1.1-3.4,2.9-6.5,4.5-9.7c0.2-0.4,0.1-1.6,1.2-0.9c-1.7,6.6-3.6,13.1-5.2,19.7
		c-0.4,1.8-1.8,1.5-2.9,1.7c-10.7,1.5-21.4,2.9-32.1,4.3c-4.2,0.6-8.4,1.2-12.5,1.9c-1.9,0.2-3.8,0.4-5.7,0.7
		c-9.8,1.2-19.5,3.3-29.5,2.7C97.9,139,91.4,139.1,85,139z"/>
	<path class="st0" d="M57.7,151.7c-2.3,9.8-4.4,19.7-7.2,29.3c-3.6,0.5-7.2,1-10.8,1.5c-1.5,0.2-2.1-0.3-2.3-2
		c-0.4-4.4-1.2-8.7-1.8-13c-0.3-2-0.3-3.9,0.8-5.8c2.4-4.5,4.7-9,6.8-13.6c0.9-2,2-1.9,3.6-1.2C50.4,148.5,54.1,150.1,57.7,151.7z
		 M53.6,163.3c-0.1-0.3-0.2-0.6-0.4-0.8c-1.8-1.5-3.6-3-5.4-4.4c-0.7-0.6-1,0-1.2,0.6c-0.6,2.5-1.2,5-1.9,7.5
		c-0.2,0.8,0,1.2,0.6,1.7c1.2,1,2.4,2.1,3.6,3.1c0.4,0.3,1,1.1,1.4,0.2C51.4,168.6,52.5,166,53.6,163.3z M43.4,163.4
		c-0.6-1.1-1.5-1.9-2.5-2.5c-0.3-0.2-2.8,3.6-2.7,4.2c0.1,0.9,1.2,1.9,1.5,1.7C41,165.8,42.1,164.6,43.4,163.4z M48,155
		c-1-1.5-1.9-2.7-3.1-4.3c-0.5,2.2-1.2,3.9-1.2,6C45.3,156.1,46.5,155.6,48,155z M40.2,176.9c0.8-0.7,1.3-1,1.6-1.4
		c0.4-0.6,1.9-1,0.8-2.1c-0.7-0.7-1.3-2.1-2.5-1.7c-1.3,0.5-0.3,1.7-0.2,2.6C39.9,174.9,40.1,175.7,40.2,176.9z"/>
	<path class="st3" d="M92.5,60.6L52.4,70.8L38.2,92l14.2,26.7l22,8.3l19.7,2.9l12.3-11.2l3.6,5.6l19.4,5.6L158,120
		c0,0,12.7-21,12.4-24.8c-0.4-3.7,0-20.2,0-20.2l-21.9-14.4l-41.6-4.5L92.5,60.6z"/>
	<path class="st4" d="M46.7,80c13.6-0.8,26.9-1.7,40.2-2.5c3.6-0.2,7.2-0.4,10.7-0.6c1.3-0.1,1.9-0.1,1.6,1.6
		c-0.4,2-1.9,4.5-0.6,5.8c1,1,3.8,0.2,5.8,0.2c1.9,0,3.8-0.2,5.7-0.3c1.8,0,3.7,0,5.9,0c-0.9-2.7-1.6-5-2.6-7.2
		c-0.8-1.8-0.3-2.1,1.4-2c10.4,0.6,20.8,1.1,31.2,1.7c6.4,0.3,12.8,0.7,19.2,1c1.7,0.1,2.1,0.5,1.3,2.1c-3.1,5.8-6,11.7-8.9,17.6
		c-0.6,1.3-1.4,1.6-2.7,1.5c-10.5,0-21-0.1-31.5,0c-1.5,0-2.2-0.5-2.6-1.9c-0.9-2.8-2-5.5-2.9-8.2c-0.4-1.1-1-1.5-2.2-1.4
		c-5.6,0.4-11.1,0.8-16.7,1.2c-1.4,0.1-2,0.5-2.2,2c-0.6,3.8-1.5,7.5-2.1,11.3c-0.2,1.3-0.7,1.6-1.9,1.6c-11.9,0-23.8-0.1-35.7,0
		c-1.5,0-1.8-0.7-2.2-1.8C52.2,94.6,49.5,87.4,46.7,80z"/>
	<path class="st5" d="M103,108.2c0-2.5,0.1-5,0-7.5c0-1.2,0.2-1.7,1.6-1.8c4.7-0.1,4.6-0.2,5.4,4.5c0.7,4.1,1.4,8.2,2.2,12.2
		c0.3,1.6-0.1,1.9-1.5,1.8c-2.5-0.2-5.7,1-7.2-0.4c-1.6-1.4-0.3-4.7-0.5-7.2C103,109.4,103,108.8,103,108.2z"/>
	<path class="st6" d="M181.5,50.4c0,6.5,0,13,0,19.5c0,1.1-0.6,1.1-1.3,0.4c-2.1-2-4.1-4.1-6.2-6.1c-0.4-0.4-0.5-0.8-0.2-1.3
		c2.4-4.2,4.7-8.4,7.1-12.6C181.1,50.3,181.3,50.4,181.5,50.4z"/>
	<path class="st7" d="M54.1,62.5c-0.3,1.1,0.6,2.8-0.5,3.2c-1.7,0.7-3.8,0.9-5.7,1.2c-0.5,0.1-0.8-0.6-0.8-1.1
		c-0.1-2.2,0-4.5-0.1-6.7c0-0.8,1-0.5,1.1-1.1c1.4-0.2,3,0.4,4.3-0.6c0.9,0,1.3,0.4,1.4,1.3C53.8,60,54,61.2,54.1,62.5z"/>
	<path class="st8" d="M54.1,62.5c-0.1-1.2-0.3-2.5-0.3-3.7c0-0.9-0.4-1.4-1.4-1.3c-0.6-5.4-0.6-5.4-3.9-5.5c0-2.1,0-4.3,0-6.4
		c0.2-0.1,0.3-0.1,0.5-0.2c1.3,1.9,2.6,3.9,3.9,5.8c1.9,2.7,3.8,5.5,5.7,8.2c0.9,1.2,1.1,2-0.9,2.3C56.5,61.7,55.3,62.2,54.1,62.5z"
		/>
	<path class="st9" d="M94.2,129.9c4.3-3.9,8.1-7.4,12.3-11.2c0.5,3,1.3,5.6,0.9,9.1c-0.7-2-1.2-3.4-1.9-5.2c-1.1,1.4-2,2.5-2.9,3.6
		C99.8,129.9,99.8,129.9,94.2,129.9z"/>
	<path class="st10" d="M48.5,51.9c3.3,0.2,3.3,0.2,3.9,5.5c-1.3,1-2.9,0.4-4.3,0.6C48.3,56,47.4,53.9,48.5,51.9z"/>
	<path class="st9" d="M89,113.2c-0.2,1.4-1,2.3-2.3,2.3c-1.5-0.1-2.3-1-2.2-2.4c0.1-1.3,1-2.1,2.4-2C88.3,111.1,88.9,112.1,89,113.2
		z"/>
	<path class="st11" d="M129.5,118.1c-0.2,1.3-0.9,2-2.2,1.8c-1.2-0.1-1.8-0.9-1.7-2.1c0.1-1.3,0.9-2,2.2-1.9
		C128.9,116.2,129.4,116.9,129.5,118.1z"/>
	<path class="st2" d="M136.5,112.2c-0.1,1.2-0.8,1.8-2,1.8c-1.1,0-2-0.6-2-1.8c0-1.1,0.8-1.6,1.8-1.7
		C135.5,110.5,136.3,111,136.5,112.2z"/>
	<path class="st5" d="M73,110.6c1.1,0.2,1.5,1,1.4,2c0,1-0.3,1.9-1.5,1.9c-1.1,0-1.4-1-1.4-1.9C71.5,111.5,71.9,110.7,73,110.6z"/>
	<path class="st9" d="M126,109.9c-0.1,1-0.6,1.5-1.6,1.5c-1,0.1-1.8-0.4-1.8-1.5c0-1,0.7-1.4,1.6-1.4
		C125.1,108.5,125.8,108.9,126,109.9z"/>
	<path class="st12" d="M77.5,121.6c0.3-0.9,1.1-1.2,2-1.1c0.8,0.1,1.6,0.4,1.4,1.3c-0.2,1-1,1.2-1.9,1.1
		C78.2,122.9,77.6,122.6,77.5,121.6z"/>
	<path class="st6" d="M85,139c6.4,0.1,12.8,0,19.2,0.4c10,0.6,19.7-1.5,29.5-2.7c1.9-0.2,3.8-0.4,5.7-0.7
		c-9.4,24.8-18.7,49.6-28.1,74.3c-0.2,0-0.4,0-0.6,0c-1.5-4.1-3-8.2-4.5-12.3c-6.8-18.8-13.7-37.5-20.5-56.3
		C85.4,141,84.9,140.1,85,139z"/>
	<path class="st2" d="M166.6,158.7c0.4-0.1,0.6-0.2,0.7-0.2c2.1,0.1,5.3-1,6.1,0.4c1.3,2.3,0.4,5.5,0.4,8.3c0,0.5-0.3,0.7-0.8,0.8
		c-2.7,0.9-4.4-0.2-5.1-3C167.5,163,167.1,160.9,166.6,158.7z"/>
	<path class="st9" d="M180.2,158c1.6,0,2.9,0,4.2,0c0.7,0,1.4,0,1.4,0.9c0,0.7,0.9,1.3-0.1,2.1c-1.2,1-2.1,2.3-3.4,3.7
		C181.6,162.4,180.9,160.4,180.2,158z"/>
	<path class="st12" d="M177.9,170.1c0.7,2.1,0.6,3.9,0.3,5.6c-0.4,2.1-2.3,0.6-3.7,1.1C175.5,174.3,176.4,172.2,177.9,170.1z"/>
	<path class="st12" d="M179.2,154.8c-0.3-1.5-2-2.9-0.4-4.2c1-0.8,1.7,0.5,2.1,1.1C182.2,153.6,179.6,153.5,179.2,154.8z"/>
	<path class="st2" d="M53.6,163.3c-1.1,2.7-2.2,5.3-3.3,7.9c-0.4,0.9-1,0.1-1.4-0.2c-1.2-1-2.4-2.1-3.6-3.1
		c-0.6-0.5-0.8-0.9-0.6-1.7c0.7-2.5,1.3-5,1.9-7.5c0.2-0.6,0.4-1.2,1.2-0.6c1.8,1.4,3.6,2.9,5.4,4.4
		C53.4,162.7,53.5,163.1,53.6,163.3z"/>
	<path class="st11" d="M43.4,163.4c-1.2,1.1-2.4,2.4-3.7,3.3c-0.3,0.2-1.4-0.7-1.5-1.7c-0.1-0.6,2.4-4.4,2.7-4.2
		C41.9,161.5,42.7,162.3,43.4,163.4z"/>
	<path class="st9" d="M48,155c-1.6,0.6-2.8,1.1-4.2,1.7c0-2.1,0.7-3.8,1.2-6C46.1,152.3,47,153.5,48,155z"/>
	<path class="st9" d="M40.2,176.9c-0.2-1.2-0.3-1.9-0.3-2.7c0-0.9-1-2.1,0.2-2.6c1.2-0.4,1.8,1,2.5,1.7c1.1,1.1-0.4,1.5-0.8,2.1
		C41.5,175.9,41,176.2,40.2,176.9z"/>
</g>
<path class="st3" d="M71.5,248.5l-13.8,13c0,0,20.7,4,21.5,2.5s1.7-10.7,1.7-10.7l-6.5-4.8H71.5z"/>
<path class="st3" d="M150,253.3c0.5,1.7,7.5,11.1,7.5,11.1s12.5,2.8,14,0c1.5-2.8,8.5-5.5,8.2-7.9c-0.2-2.4-5.2-12.4-5.2-12.4
	l-9.6-3L150,253.3z"/>
</svg>
