<?xml version="1.0" encoding="utf-8"?>
<!-- Generator: Adobe Illustrator 19.1.0, SVG Export Plug-In . SVG Version: 6.00 Build 0)  -->
<svg version="1.1" xmlns="http://www.w3.org/2000/svg" xmlns:xlink="http://www.w3.org/1999/xlink" x="0px" y="0px"
	 viewBox="0 0 443 186" style="enable-background:new 0 0 443 186;" xml:space="preserve">
<style type="text/css">
	.st0{fill:#AADFF3;}
	.st1{fill:#99958F;}
	.st2{fill:#52818C;}
	.st3{fill:#726E57;}
</style>
<g id="Layer_1_xA0_Image_1_">
</g>
<g id="Layer_5_xA0_Image_1_">
	<g>
		<path d="M144.1,29.2 M130.3,29.6c0-0.1,0.6-0.3,1-0.3 M179.4,28.3c0.9,0,1.8,0,2.6,0c0-0.1-0.1-0.2-0.1-0.3
			c0.6-0.2,1.1-0.6,1.7-0.6c6.7,0,13.4,0,20,0c0.5,0,1,0,1.5,0c0.1-0.4,0.2-0.7,0.3-1.1c0.7,0,1.3,0,2,0c5.5,0,11,0,16.4,0
			c0.6,0,1.3,0.3,1.5-0.7c0-0.1,0.8-0.2,1.2-0.2c5.8,0,11.6,0,17.4,0c0.6,0,1.4,0.3,1.5-0.7c0-0.1,0.4-0.2,0.6-0.2
			c0.4,0,0.7,0,1.1,0c35,0,69.9,0,104.9,0c0.7,0,1.5,0.3,1.5-1c3.5,0,6.8,0,10.2,0c3.5,0,7,0,10.6,0c0.5,0,0.9-0.4,1.4-0.5
			c0-0.1-0.1-0.3-0.1-0.4c13.9,0,27.7,0,41.7,0c0-1,0.5-1.1,1.3-1c1.2,0.1,2.4,0,3.7,0c0-1,0.6-1.1,1.4-1.1c0.7,0,1.7,0.5,1.9-0.8
			c0-0.1,0.6-0.1,0.9-0.2c0.4-0.1,0.8-0.4,1.1-0.7c1.5-0.6,2.8-0.3,3.8,1.2c0,0.7,0,1.5,0,2.5c-0.7,0-1.3,0.1-2,0.1
			c0,2.6,0,5.1,0,7.6c0,0.6,0.3,1.3-0.7,1.5c-0.1,0-0.2,0.5-0.2,0.8c0,4.4,0,8.7,0,13.1c0,0.5-0.1,1,0.7,1c0.1,0,0.3,0.4,0.3,0.7
			c0,0.7,0,1.4,0,2.1c1.1,0,1.1,0.7,1.1,1.5c0,1.1,0,2.2,0,3.2c0,0.6-0.3,1.4,0.8,1.6c0.1,0,0.2,0.6,0.2,1c0,3.2,0,6.5,0,9.7
			c0,0.5-0.2,1.2,0.7,1.3c0.1,0,0.3,0.4,0.3,0.7c0,7.7,0,15.4,0,23c-0.1,0-0.3-0.1-0.4-0.1c-0.2,0.5-0.5,1.1-0.5,1.6
			c0,3.5,0,7,0,10.4c-0.1,0-0.2-0.1-0.3-0.1c-0.2,0.6-0.4,1.1-0.7,1.7c-0.1,0.2-0.2,0.5-0.3,0.7c-0.3,0.3-0.7,0.5-1.3,1
			c-0.5,0-1.3,0-1.9,0c-0.9,0.8-1.7,1.3-2.2,2c-0.5,0.9-1.2,0.9-2,1.1c-0.5,0.1-0.9,0.9-1.3,1.4c-0.3,0.4-0.7,0.8-1,1.1
			c-0.7,0.7-1.4,1.5-2.2,2.2c-0.2,0.2-0.6,0-0.9,0.1c-0.3,0.1-0.6,0.3-0.8,0.6c-0.4,0.4-0.7,0.9-1.1,1.2c-0.9,0.8-1.8,1.5-2.7,2.3
			c-0.2,0.2-0.3,0.5-0.4,0.9c-0.9,0-1.8,0-2.4,0c-0.7,0.8-1.4,1.4-2,2.1c-0.5,0.5-1,1-1.4,1.5c-0.5,0.5-0.9,0.9-1.4,1.4
			c-0.5,0.6-1.2,1.4-1.7,1.6c-1.2,0.5-0.8,1.4-0.9,2c-1,1-1.9,1.8-3,2.9c0.2,1.2-0.8,1.9-1.8,2.7c-0.9,0.7-1.5,1.7-2.2,2.6
			c-0.4,0.5-0.9,0.8-1.4,1.3c-0.5,0.5-1.1,1-1.6,1.5c-0.1,0.1-0.1,0.4-0.2,0.6c-1.5-0.2-2.3,0.6-2.9,1.8c-0.1,0.2-0.5,0.3-0.9,0.4
			c0,0.5-0.1,1.1-0.1,1.7c-0.6,0-1.2,0.1-1.7,0.1c0,0.1,0.1,0.1,0.1,0.2c-0.4,0.3-1,0.5-1.2,1c-0.2,0.5-0.2,1.1-0.2,1.8
			c-0.6,0-1.1,0.1-1.3,0.1c-0.9,0.8-1.5,1.4-2.2,2c-0.4,0.4-0.9,0.7-1.2,1.1c-0.4,0.5-0.7,1.2-1.2,1.7c-0.4,0.4-0.9,0.8-1.4,1.2
			c-0.5,0.5-1,1.1-1.6,1.6c-0.4,0.4-0.8,0.9-1.3,1.3c-0.7,0.5-1.4,1-1.8,1.9c-0.2,0.4-0.7,0.7-1.1,1.1c-0.6,0.6-1.2,1.3-1.9,1.9
			c-0.9,0.8-1.9,1.4-2.7,2.2c-0.3,0.4-0.2,1.1-0.3,1.6c-1.9,1.9-3.8,3.8-5.9,5.8c0,0.3,0,0.8-0.1,1.1c-0.5,0.5-0.9,0.9-1.4,1.4
			c-0.4,0-1.1,0-1.8,0c-0.2,0-0.5-0.2-0.7-0.4c-0.2-0.2-0.4-0.4-0.6-0.5c-0.1,0.2-0.3,0.5-0.4,0.7c-0.1,0.3-0.1,0.7-0.1,1.2
			c-0.8,0-1.5,0-2.3,0c-0.2,0-0.4,0-0.4-0.1c-0.3-1.4-1.4-0.8-2.2-0.8c-8.2,0-16.3,0-24.5,0c-0.4,0-0.9,0-1.4,0c0.1-1-0.6-1-1.3-1
			c-1.9,0-3.8,0-5.8,0c-0.4,0-0.7-0.4-1-0.6c-0.3-0.2-0.6-0.4-0.9-0.4c-1.4,0-2.7,0-4.1,0c-0.3,0-0.9-0.1-0.9-0.2
			c-0.2-1.2-1.2-0.8-1.8-0.8c-1.8,0-3.5,0-5.3,0c-0.5,0-0.9-0.4-1.4-0.6c0-0.1,0.1-0.3,0.1-0.4c-3.2,0-6.4,0-9.6,0
			c-0.7,0-1.4,0-1.3-1c-4.4,0-8.8,0-13.2,0c-0.2,0-0.6,0.1-0.6,0.2c-0.1,1.2-1,0.8-1.6,0.8c-25.9,0-51.8,0-77.6,0c-0.5,0-1,0-1.7,0
			c0,1.1-0.7,1.1-1.5,1.1c-4.1,0-8.2,0-12.4,0c-0.5,0-1.2-0.2-1.4,0.7c0,0.1-0.6,0.3-0.9,0.3c-2.6,0-5.2,0-7.8,0
			c-0.5,0-1,0.4-1.5,0.6c0,0.1,0.1,0.3,0.1,0.4c-1.4,0-2.8,0-4.2,0c-7.5,0-15,0-22.4,0c-0.5,0-1.1,0.2-1.3-0.7
			c0-0.2-0.7-0.3-1.1-0.3c-3.8,0-7.6,0-11.4,0c-0.6,0-1.3,0.3-1.5-0.7c0-0.1-0.5-0.2-0.8-0.2c-12,0-24.1,0-36.1,0
			c-0.3,0-0.7,0.3-0.9,0.6c-0.4,0.5-1.6,0.5-2-0.1c-0.4-0.6-0.6-0.7-1,0c-0.1,0.2-0.5,0.5-0.8,0.5c-2.5,0-5,0-7.4,0
			c-0.2,0-0.6-0.1-0.7-0.2c-0.2-1.2-1-0.7-1.7-0.8c-1.4,0-2.9,0-4.3,0c-0.5,0-1.2-0.2-1.2,0.7c-0.3,0-0.8,0-0.8,0
			c-0.1-0.9-0.8-0.7-1.4-0.7c-1.8,0-3.6,0-5.4,0c0-0.1,0.1-0.3,0.1-0.4c-0.6-0.2-1.2-0.6-1.7-0.6c-5.8,0-11.7,0-17.5,0
			c-0.7,0-1.4,0.1-1.2-1c-2.7,0-5.3,0-7.9,0c-0.5,0-1.1,0.2-1.2-0.6c0-0.1-0.6-0.3-1-0.3c-2.6,0-5.2,0-7.8,0c0-0.1,0.1-0.3,0.1-0.4
			c-0.5-0.2-0.9-0.5-1.4-0.6c-1.6-0.1-3.1,0-4.8,0c0-0.9-0.6-1.1-1.3-1c-0.6,0.1-1.1,0-1.7,0c-1,0-2.1-1.1-2.1-2.1
			c0-14.3,0-28.6,0-42.8c0-0.2,0-0.5,0-0.6c2-1.3,0.7-3.2,1-4.7c0.1-0.3-0.4-0.7-0.7-1c-0.1,0-0.2,0.1-0.3,0.1c0-6.2,0-12.4,0-18.7
			c0.3-0.1,0.6-0.2,1-0.3c0-0.7,0.1-1.4,0-2.1c-0.2-1.4,0.6-2.2,1.7-2.9c0.5-0.4,0.8-1.2,1.3-1.5c0.8-0.5,0.9-1.8,2.2-1.5
			c0.2,0,0.4,0,0.6-0.1c1.2-0.8,1.2-0.9,2-0.9c0.3-0.9,0.3-0.9,1.6-1c0.9-0.8,1.6-1.5,2.6-2.4c0-0.3,0-0.9,0.1-1.6
			c0.6,0,1.2-0.1,1.8-0.1c0.1-1.4,1.2-0.7,1.8-1.1c0.9-0.9,1.8-1.8,2.8-2.8c0.3,0,0.8,0,1,0c1.7-1.8,3.3-3.3,4.8-4.9
			c0.5-0.5,1.8,0.6,1.8-1.1c0.6,0,1.2,0,1.5,0c0.7-0.8,1.1-1.5,1.8-2c0.7-0.5,1.2-1.3,2.3-1.1c0.3,0.1,1.1-0.6,1.2-1.1
			c0.2-1.4,1.3-0.7,1.9-1c1.8-1.2,2.5-3.7,5-4c0.4-0.5,1-1.1,1.6-1.8c1.3,0.2,2-0.7,2.8-1.8c0.5-0.8,1.4-1.5,2.1-2.2
			c0.1-0.1,0.2-0.1,0.3-0.1c1.4,0.2,1.8-0.9,2.5-1.7c0.3-0.4,0.8-0.7,1.1-1.2c0.9,0,1.7,0,2.3,0c1.4-1.4,2.6-2.6,4-4
			c0.2,0,0.7,0,1.2,0c0.8-1.2,1.6-2.3,3.3-2c0-0.7,0.1-1.3,0.1-1.5c0.8-0.8,1.4-1.5,2-2.1c0.5-0.5,1.2-0.9,1.6-1.4
			c0.5-0.8,1.8-0.7,2-1c0.8-1.5,2.2-0.6,3.4-1.1c0-0.5,0.1-1.1,0.1-1.8c2,0.6,2.4-1.7,4-2.2c0-0.5,0-1,0-1.7c1.6,0,0.8-1.2,1.2-2.1
			c0.4,0,0.8,0,1.3,0c5.4,0,10.9,0,16.3,0c0.5,0,1.2,0.2,1.2-0.7 M175,28.2 M119.2,95.3c-20,0-39.8,0-59.8,0c0.3,1.2-0.6,1-1.3,1
			c-0.8,0-1.9,0.5-1.9-1c-10.6,0-21.2,0-31.7,0c0,0.1,0.1,0.2,0.1,0.3c-0.5,0.2-0.9,0.6-1.4,0.6c-0.6,0-1.3-0.2-1.9-0.4
			c-0.2-0.1-0.4-0.3-0.6-0.5c-0.1,0.2-0.4,0.5-0.4,0.7c0,4.2,0,8.3,0,12.5c0,0.3,0.2,0.5,0.3,0.8c0.2,0.4,0.6,0.7,0.6,1.1
			c0,5.3,0,10.6,0,16c0,0.4-0.4,0.7-0.6,1.1c-0.1,0.3-0.1,0.8,0,0.8c0.8,0.1,0.6,0.7,0.6,1.2c0,3.6,0,7.2,0,10.8c0,0.7,0,1.3,0,2
			c0.4,0.1,0.7,0.2,1.1,0.3c0,6.3,0,12.5,0,18.8c0.7,0,1.2,0.1,1.8,0.1c0,0.1-0.1,0.2-0.1,0.3c0.5,0.2,0.9,0.6,1.4,0.6
			c1.6,0.1,3.1,0,4.8,0c0,1.1,0.7,1,1.5,1c2.2,0,4.4,0,6.6,0c0.3,0,0.7,0.2,1,0.4c0.4,0.2,0.7,0.5,1.1,0.6c2.2,0.1,4.4,0,6.6,0
			c0.8,0,1.5,0,1.5,1c4.3,0,8.5,0,12.8,0c0.1-0.3,0.2-0.7,0.2-1c2.3,0,4.5,0,6.7,0c0,0.9,0.6,1,1.3,1c6.5,0,13,0,19.6,0
			c0.8,0,1.3-0.1,1.3-1c0.3,0,0.6-0.1,0.9-0.1c13.3,0,26.6,0,39.8,0c0.5,0,1,0.4,1.5,0.7c0,0.1-0.1,0.3-0.1,0.4c4.5,0,9,0,13.6,0
			c0,1,0.6,1,1.3,1c6.9,0,13.8,0,20.6,0c0.8,0,1.3-0.1,1.3-1c3,0,5.9,0,8.8,0c0.3,0,1-0.2,1-0.3c0.1-0.9,0.7-0.7,1.2-0.7
			c4.2,0,8.4,0,12.6,0c0.4,0,1,0,1-0.1c0.4-1.3,1.4-0.8,2.2-0.8c25.6,0,51.3,0,76.9,0c0.8,0,2,0.6,2.3-0.9c0-0.1,0.4-0.1,0.7-0.1
			c5.8,0,11.5,0,17.3,0c0.3,0,0.8,0.2,0.8,0.3c0.1,0.8,0.6,0.7,1.1,0.7c3,0,5.9,0,8.9,0c0.4,0,1,0.2,1,0.3c0.1,0.8,0.7,0.6,1.2,0.6
			c2.2,0,4.5,0,6.7,0c0,0.1-0.1,0.3-0.1,0.4c0.5,0.2,0.9,0.6,1.4,0.6c1.2,0.1,2.5,0.1,3.7,0c0.8,0,1.3,0.1,1.3,1c2.3,0,4.6,0,6.8,0
			c0.3,0,0.9,0.1,1,0.2c0.1,1,0.9,0.7,1.4,0.7c7.1,0,14.2,0,21.4,0c0.4,0,0.8,0,1.4,0c-0.1-0.8-0.1-1.8-0.3-1.8
			c-0.9-0.2-0.8-0.8-0.8-1.3c0-16.9,0-33.8,0-50.6c0-0.5,0.4-0.9,0.6-1.4c0.1,0,0.3,0.1,0.4,0.1c0-3.7,0-7.4,0-11.1
			c0-0.2-0.1-0.5-0.3-0.7c-0.3-0.3-0.6-0.6-1.1-1c-3.6,0-7.5,0-11.4,0c0-1.1-0.7-1-1.5-1c-18.8,0-37.6,0-56.4,0c-0.2,0-0.5,0-0.7,0
			c-0.2,0-0.6,0.2-0.6,0.3c-0.1,0.9-0.7,0.7-1.2,0.7c-2.8,0-5.7,0-8.5,0c-0.7,0-1.4,0-1.4,1c-3,0-5.9,0-8.8,0c0,0.1,0.1,0.3,0.1,0.4
			c-0.4,0.2-0.8,0.5-1.2,0.5c-2.6,0-5.2,0-7.8,0c-4.4,0-8.7,0-13.2,0c0.2-1.3-0.6-1-1.3-1c-11.8,0-23.7,0-35.5,0c-0.8,0-1.3,0-1.3-1
			c-0.5,0-1,0-1.4,0c-3.5,0-7,0-10.4,0c-0.3,0-1-0.2-1-0.3c-0.1-0.9-0.8-0.7-1.3-0.7c-4,0-8.1,0-12.1,0c-6.5,0-13,0-19.4,0
			c-0.4,0-1.1-0.1-1.1-0.3c-0.2-0.9-0.8-0.6-1.3-0.6c-6.8,0-13.7,0-20.5,0c-0.7,0-1.5,0.1-1.4-1.1c-2.9,0-5.7,0-8.5,0
			C119.9,96.2,119.1,96.4,119.2,95.3z M281.3,77.3c0,0.8,0,1.4,0,2c0,0.3,0.1,0.7,0.2,0.7c1,0.1,0.8,0.9,0.7,1.5
			c-0.1,1.1,0.4,2.2-0.9,3.1c-0.9,0.6-1.4,1.8-2.7,1.6c-0.5-0.1-1.1,0-1.7,0c-0.2,0-0.6,0.1-0.6,0.2c-0.1,1-0.8,0.8-1.4,0.8
			c-1.2,0-2.3,0.1-3.5,0c-0.8,0-1.3,0.1-1.3,1c-2.8,0.2-2.8,0.2-3.1,1c-0.8,0-1.7,0-2.7,0c0.3,1.2-0.5,0.9-1.1,1
			c-0.7,0.1-1.8-0.5-2.1,0.9c-0.1,0.4-0.9,0.7-1.3,1.1c-0.7,0.7-1.8,1.1-1.6,2.5c0.1,0.5-0.2,1-0.3,1.5c-0.1,0.3-0.4,0.5-0.6,0.7
			c0.3,0.1,0.6,0.3,0.9,0.3c2.3,0,4.6,0,6.8,0c0.8,0,1.3-0.1,1.3-1c3.3,0,6.5,0,9.7,0c0.7,0,1.4,0,1.3-1c21,0,41.8,0,62.6,0
			c0.4,0.4,0.6,0.9,0.9,0.9c2.1,0.1,4.3,0,6.4,0c0.1-0.7,0.1-1.3,0.1-1.9c0.6,0,1.2-0.1,1.8-0.1c0-1.6,1.2-0.7,1.7-1.2
			c1.2-1.2,2.4-2.4,3.8-3.8c0.3,0,0.8,0,1.2,0c0.6-0.7,1.1-1.4,1.6-1.9c0.4-0.4,0.9-1,1.4-1c1.4-0.1,1.9-1.1,2.6-2c0.4,0,1,0,1.6,0
			c-0.3-1.1,0.5-0.9,1.1-1c0.5-0.1,0.9-0.4,1.3-0.6c0-0.1-0.1-0.2-0.1-0.3c0.6,0,1.1,0,1.7,0c0-0.1-0.1-0.2-0.1-0.3
			c0.3-0.3,0.8-0.4,1-0.8c0.7-1.1,1.4-2.2,3-2c0,0,0.1,0,0.1,0c0.4-0.5,0.8-1,1.2-1.5c0.4-0.5,0.9-0.9,1.4-1.4
			c0.5-0.5,1.1-1,1.6-1.5c0.5-0.5,1-1,1.5-1.5c0.5-0.5,1.1-0.9,1.6-1.4c0.6-0.6,1.2-1.2,2-2.1c0-0.3,0-0.8,0-1.4
			c0.1,0.1,0.3,0.2,0.4,0.4c0.7-0.7,1.5-1.4,2.2-2.2c-0.1-0.1-0.2-0.3-0.4-0.4c0.5,0,1,0,1.3,0c1.9-1.9,3.6-3.6,5.4-5.5
			c0.1-0.7,0.2-0.7,0.8-1.7c0.3-0.5,0.8-0.6,1.1-1c0.8-0.8,1.4-1.8,2.1-2.7c0.3-0.4,0.7-0.9,1.1-1.1c1.1-0.6,2-1.4,1.9-2.2
			c0.9-2,3.2-2.4,2.9-4.3c0.4-0.5,0.7-0.9,1.2-1.5c-1.3,0-2.2,0-3.2,0c0.1,1-0.6,1-1.3,0.9c-0.9,0-1.8,0-2.3,0
			c-0.6,0.5-0.8,0.9-1.2,1c-0.4,0.1-0.9,0-1.2-0.2c-0.3-0.1-0.5-0.5-0.7-0.8c-0.2,0.3-0.4,0.6-0.6,1c-0.6,0-1.3,0-1.9,0
			c-0.3,0-0.6,0.2-0.8,0.3c-0.6,0.5-1.2,1.1-1.7,1.7c-0.5,0.6-1,1.2-1.6,1.9c-0.4,0-1,0-1.4,0c-1.5-1.5-2.5-3.7-4.9-2.9
			c-0.7-0.8-1.2-1.3-1.8-2c-3.1,0-6.3,0-9.2,0c-1.2,1.2-2.3,2.3-3.3,3.3c-0.4,0.5,0.2,1.5-1,1.9c-0.6,0.2-0.9,1.1-1.4,1.7
			c-0.8,0-2.3,0.2-2.4,0c-0.4-1.3-1.4-0.7-2-0.9c-0.6-0.7-1.1-1.2-1.7-1.9c-1.7,0-3.7,0-5.6,0c-0.5,0-0.9,0.4-1.4,0.6
			c0,0.1,0.1,0.2,0.1,0.3c-1.6,0-3.1,0-4.7,0c-0.5,0-0.9,0.4-1.4,0.6c0,0.1,0.1,0.2,0.1,0.4c-0.9,0-1.8,0-2.7,0c0,0.9-0.6,1.1-1.3,1
			c-1.2-0.1-2.4-0.1-3.6,0c-0.8,0-1.3-0.1-1.3-1c-1.1,0-2,0-3,0c-0.3,0-0.8-0.2-0.8-0.3c-0.1-0.8-0.7-0.6-1.1-0.7c-0.6,0-1.2,0-2,0
			c0.3-1.2-0.5-1-1.1-1c-1.2,0-2.5,0-3.8,0c-0.1,1.5-1.2,0.8-1.8,1c-0.6,0.7-1.1,1.3-1.7,2c-0.4,0-1.1,0-1.7,0
			c-0.3,0-0.8,0.1-0.8,0.2c-0.2,1.4-1.3,0.7-2.1,0.9c-0.4,0.1-0.8,0.1-1,0.4c-0.8,1-1.6,2-3.1,1.6c-0.3-0.1-0.6,0-0.8,0
			c-0.8-0.1-1.3,0.2-1.3,1c-1.3,0-2.5,0-3.7,0c-0.6,1.8-2,0.7-3,0.9c-0.4,0.1-0.9-0.3-1.4-0.5c0-0.1,0.1-0.2,0.1-0.3
			c-0.6,0-1.2-0.1-1.8-0.1c0-0.1,0.1-0.1,0.1-0.2c-0.7-0.7-1.4-1.4-2.2-2.2c-0.1-1.4-0.1-1.4-1.1-1.8c0.9-1.3-0.6-1.7-1-2.5
			c-0.3-0.5-1.1-1.1-1.7-1.2c-2.7-0.1-5.3-0.1-8.1-0.1c0,1-0.6,1.1-1.3,1c-0.8,0-1.8-0.4-1.9,0.8c-1,0.7-2.6-0.7-3.1,1.2
			c-0.7,0-1.3,0-2,0c-0.2,0-0.5,0.3-0.7,0.4c-0.3,0.2-0.6,0.5-1,0.6c-0.6,0.1-1.3,0-2,0c-0.1,0.4-0.2,0.7-0.3,1.1
			c-0.6,0-1.2,0-1.7,0c-0.3,0-0.9,0-0.9,0.1c-0.3,1.2-1.3,0.7-2.1,0.8c-1.1,0.3-2.7-0.9-3.4,0.9c0,0.1-0.5,0.1-0.8,0.1
			c-1.2,0-2.5,0-3.7,0c-0.8,0-1.3,0.1-1.3,1c-1.6,0-3.2,0-4.8,0c-0.5,0-0.9,0.4-1.4,0.6c0,0.1,0.1,0.2,0.1,0.3c-2.6,0-5.1,0-7.7,0
			c-0.4-0.5-0.7-0.8-1.2-0.9c-0.6-0.1-1.2,0-1.8,0c-0.5-1.3-1.5-2-3-2c-1.2,0-1.9-1.4-3.1-1.1c0,0-0.1-0.1-0.1-0.2
			c-0.6-1.1-2.1-0.7-2.7-1.7c-2.4,0-4.7,0-7,0c-0.4,0.9-0.4,0.9-2.1,1.1c-0.1,0.3-0.1,0.7-0.3,0.8c-0.8,0.3-1.2,1.6-2.4,1.2
			c-0.1,0-0.3,0.2-0.5,0.4c-0.3,0.2-0.6,0.4-0.9,0.6c-0.4,0.2-0.9,0.4-1.4,0.6c0,0.1,0.1,0.2,0.1,0.3c-0.9,0-1.7,0-2.6,0
			c-0.3-0.6-0.8-0.9-1.2-1.3c-0.8-0.9-1.4-1.8-2.2-2.6c-0.1-0.1-0.5,0.2-0.8,0.3c-0.3,0.2-0.5,0.6-0.8,0.6c-1.7,0.1-3.4,0-4.9,0
			c-0.6-0.7-1.1-1.4-1.6-2c-0.5,0-1.1-0.1-1.7-0.1c0-1.5-1.3-0.6-1.8-1.1c-0.4-0.4-0.9-0.7-1.3-0.7c-1.2-0.1-2.5,0-3.7,0
			c0-0.1,0.1-0.2,0.1-0.4c-0.4-0.2-1-0.6-1.1-0.5c-0.5,0.5-1,1.2-1.5,1.9c-0.8,0-1.7,0-2.3,0c-2.7,2.7-5.2,5.3-7.9,8
			c-0.2,0-0.6,0-1.1,0c-0.4,0-0.9,0-1.3,0c0,0.1,0.1,0.3,0.1,0.4c-0.5,0.2-0.9,0.5-1.4,0.6c-0.6,0.2-1.7,0-1.8,0.3
			c-0.3,0.9-0.9,0.8-1.4,0.7c-1.3-0.4-1.7,0.9-2.6,1.3c-0.3,0.1-0.4,0.5-0.7,0.7c-0.2-0.3-0.5-0.6-0.8-0.9c-0.5,0-1,0-1.4,0
			c-0.3,0.4-0.5,0.7-0.8,0.9c-0.1,0-0.5-0.1-0.5-0.2c-0.1-1.2-1-0.6-1.5-0.8c-0.6-0.1-1.6,0.5-1.6-0.8c-0.3,0-0.6-0.1-0.9,0.1
			c-0.2,0.1-0.4,0.5-0.6,0.7c-0.2-0.3-0.5-0.6-0.7-0.9c-0.5-0.1-1.5-0.1-1.6-0.4c-0.3-0.8-0.8-0.7-1.3-0.7c-0.3,0-0.8-0.1-0.8-0.2
			c-0.1-1.4-1.3-0.7-2-1c-0.1-0.3-0.2-0.6-0.3-0.9c-1,0-2.5,0.2-2.6-0.2c-0.5-1.2-1.4-0.7-2.1-0.9c0-0.9-0.6-1-1.3-0.9
			c-0.2,0-0.7-0.1-0.7-0.2c-0.1-1-0.9-0.8-1.4-0.8c-1.4,0-2.4-0.7-2.9-2c-0.6,0-1.2,0.1-1.8,0c-0.5-0.1-0.9-0.4-1.3-0.7
			c0-0.1,0.1-0.3,0.1-0.4c-0.6,0.1-1.2,0.1-1.8,0.3c-0.3,0.1-0.4,0.5-0.6,0.8c-0.2-0.3-0.4-0.6-0.6-1c-0.8,0-1.7,0-2.7,0
			c0.1,1.3-0.8,0.9-1.5,1c-0.7,0-1.7-0.3-1.7,1c-1.6,0.2-2.6,0.9-3.1,2.1c-0.5,0-1.1,0-1.6,0c-0.7,1.2-1.5,2.2-3.1,2.1
			c-0.3,0.4-0.9,0.6-1,1c-0.4,1.5-2.3,0.5-2.7,1.8c0,0-0.2,0-0.3,0c-0.5,0.2-0.9,0.4-1.4,0.6c0,0.1,0.1,0.3,0.1,0.4
			c-1.2,0-2.4-0.1-3.6,0c-0.8,0-1.3-0.1-1.3-1c-0.7,0-1.4,0-2,0c-0.3,0-0.7-0.2-0.8-0.3c-0.2-0.9-1-0.8-1.3-0.6
			c-1,0.7-1.7,0.3-2.7,0.1c-1.7-0.4-3.6-0.1-5.4-0.1c-0.3,0-0.7,0.1-0.7,0.2c-0.1,1-0.8,0.7-1.3,0.7c-1,0-1.9,0-2.9,0
			c-0.3,0-0.6,0.2-0.8,0.4c-0.7,0.6-1.3,1.2-2,1.9c-0.1,0.4,0,1.4-0.2,1.4c-1,0.2-0.8,0.9-0.8,1.6c0,0.2-0.1,0.5-0.2,0.5
			c-1.1,0.2-0.8,1-0.8,1.7c0,2.8,0,5.5,0,8.2c-0.4,0.3-0.8,0.4-1,0.7c-0.7,1-1.3,1.8-2.7,1.6c-0.8-0.1-1.7,0-2.5,0
			c-0.3,0-0.7,0.1-0.7,0.2c-0.1,1.1-0.9,0.7-1.4,0.7c-0.9,0-1.8,0-2.8,0c-0.3,0-0.8,0.2-0.8,0.3c-0.1,0.8-0.7,0.6-1.1,0.7
			c-0.3,0-0.8,0-0.8,0.1c-0.2,1.3-1.3,0.6-2.1,0.9c0.2,1.2-0.7,0.9-1.4,0.9C76,84.2,75.1,84,75,85c-0.7,0.3-1.3,0.5-1.8,0.7
			c-0.3,0.1-0.6,0.4-0.9,0.5c-0.5,0.2-0.9,0.4-1.4,0.6c0,0.1,0.1,0.2,0.1,0.3c-2.2-0.2-2.8,1.9-4.1,3c-0.5,0-1,0-1.2,0.1
			c-0.6,0.5-0.9,0.8-1.2,1.1c-0.1,0.1-0.3,0.4-0.3,0.5c0.1,0.2,0.3,0.3,0.5,0.4c0.2,0.1,0.5,0,0.7,0c6.5,0,13,0,19.6,0
			c0.4,0,0.7,0,1.2-0.1c0-1,0-2,0-3c0-0.3,0.3-0.6,0.5-0.8c0.5-0.6,1.4-1.2,1.4-1.8c0-1.3,0.6-1.3,1.6-1.3c0.7,0,1.7,0.3,1.7-1
			c2.6,0,5.1,0,7.4,0c1.8,1.8,3.5,3.6,5.4,5.5c0.2,2,0.7,2.5,3,2.5c3.1,0,6.2,0,9.2,0c1.6,0,3.1,0,4.6,0c0.1,0.4,0.2,0.7,0.3,1.1
			c2.8,0,5.6,0,8.4,0c0.8,0,1.6-0.1,1.7,1c0.5,0,1,0,1.4,0c6.7,0,13.4,0,20.2,0c0.4,0,1.1,0.1,1.1,0.2c0.2,1.2,1.1,0.8,1.7,0.8
			c10.3,0,20.6,0,30.8,0c0.5,0,1,0,1.6,0c-0.3,1.2,0.5,1,1.2,1c3.6,0,7.1,0,10.7,0c0.4,0,1,0.1,1,0.3c0.1,1,0.9,0.7,1.5,0.7
			c8.4,0,16.9,0,25.3,0c0.4,0,0.9,0,1.3-0.1c0-0.7,0.1-1.3,0.1-1.6c0.7-0.6,1.5-1,1.8-1.6c0.5-0.7,1.5-1.2,1.1-2.4
			c0-0.1,0.2-0.3,0.3-0.3c0.8,0,0.7-0.6,0.7-1.1c0-0.5-0.1-0.9,0.7-1c0.5-0.1,0.9-0.7,1.3-1.2c0.5-0.5,0.8-1.3,1.3-1.7
			c1-0.8,2-1.4,1.7-2.6c0.5-0.5,0.9-0.8,1.5-1.4c0.3,0,0.8,0,1,0c1.4-1.4,2.6-2.7,3.8-4c0.3,0,1.3,0,1.3-0.1c0.3-1.4,1.5-0.7,2.2-1
			c0-1.5,1.3-0.6,1.9-0.9c0.5-1.9,2.2-0.4,3.1-1.1c0.1-0.2,0.1-0.5,0.2-0.9c1.3,0,2.5,0,3.8,0c0.3,0,0.9,0,0.9-0.1
			c0.4-1.3,1.5-0.6,2.3-0.8c0.3-0.1,0.6-0.2,0.9-0.4c0.3-0.2,0.7-0.5,1-0.6c0.6-0.1,1.2,0,1.8,0c0.7-0.1,1.3,0,1.3,1
			c4,0,7.8,0,11.7,0c0.5,0,1-0.1,1.3,0.6c0.3,0.7,1.2,1.1,2,1.8C280.5,76.1,279.7,77.3,281.3,77.3z M407.2,39.8
			c-0.2-1.2,0.7-1.9,1.7-2.6c0.5-0.3,0.9-0.9,1.3-1.3c0.6-0.6,1.2-1.3,2-2.2c0.1-0.4-0.5-1.6,1-1.6c0-0.9-0.2-1.7,0.9-2.1
			c0.6-0.2,0.9-1.1,1.4-1.6c0.5-0.5,1.1-0.9,1.6-1.3c0.3-0.3,0.7-0.6,0.8-0.9c0.1-0.2,0-0.7-0.2-0.8c-0.3-0.1-0.7-0.1-1.1-0.1
			c-8.2,0-16.4,0-24.6,0c-4.6,0-9.1,0-13.7,0c-0.4,0-1.1,0.1-1.1,0.2c-0.2,1.1-1,0.7-1.6,0.7c-6.1,0-12.2,0-18.2,0
			c-0.4,0-1.1,0-1.1,0.2c-0.4,1.4-1.5,0.8-2.2,0.8c-34.8,0-69.7,0-104.5,0c-0.7,0-1.6-0.3-1.6,1c-0.5,0-1,0-1.4,0
			c-5.8,0-11.5,0-17.3,0c-0.4,0-1,0-1,0.1c-0.4,1.5-1.5,0.8-2.3,0.8c-5.9,0.1-11.8,0-17.8,0c0.2,1.1-0.6,1-1.3,1
			c-6.1,0-12.2,0-18.2,0c-1.1,0-2.2,0-3.4,0c0,1-0.6,1.1-1.3,1.1c-4.7,0-9.4,0-14,0c-6.8,0-13.7,0-20.5,0c-0.4,0-1.1,0.1-1.1,0.3
			c-0.2,0.8-0.8,0.6-1.3,0.6c-4.2,0-8.4,0-12.6,0c-0.8,0-1.3,0.1-1.3,1c-3,0-5.9,0-8.8,0c-0.3,0-1,0.1-1,0.2c-0.1,1.2-1,0.8-1.5,0.8
			c-7.7,0-15.4,0-23.2,0c-0.4,0-0.9,0-1.3,0c0,6,0,11.9,0,18c1-0.1,1,0.5,1,1.3c0,1.6,0,3.2,0,4.9c0.9-0.2,1.9,0.4,2.2-0.9
			c0-0.1,0.4-0.1,0.5-0.1c5.4,0,10.7,0,16.1,0c0.1,1.5,1.2,0.9,1.9,1c0.7,0.1,1.4,0,1.3-1c0.6,0,1.2-0.1,1.8-0.1
			c0.5-0.8,1.1-1.8,1.8-1.9c1.5-0.1,1.9-1.1,2.6-2.1c0.5,0,1.1,0,1.4,0c0.6-0.7,1.1-1.3,1.6-1.9c1.6-0.1,1.6-0.1,2-1.1
			c0.6,0,1.3,0,2,0c0.3,0,0.5-0.2,0.7-0.4c0.3-0.2,0.7-0.5,1-0.5c3.4,0,6.7,0,10.1,0c0.3,0,0.8,0.1,0.8,0.2c0.2,1,0.9,0.7,1.5,0.7
			c1.3,0,2.3,0.7,2.7,2c0.9,0.6,2.5-0.7,3,1.1c0.6,0,1.2,0.1,1.8,0.1c0,1.5,1.2,0.7,1.8,1.1c0.3,0.4,0.7,0.7,1.1,0.8
			c0.8,0.2,2-0.5,2.4,0.9c0,0.1,0.4,0.1,0.6,0.1c0.8-0.1,1.3,0.1,1.3,1c0.8,0.3,2-0.4,2,1.1c0.7,0,1.3,0,1.9,0c0.6,0,1.2,0,1.8,0
			c0.2,1.5,1.3,0.8,2.1,0.9c-0.1-1.2,0.8-0.9,1.4-0.9c0.8-0.1,1.8,0.4,1.8-1c0.9,0,1.8,0,2.7,0c-0.1-0.1-0.1-0.2-0.2-0.3
			c1-0.6,2-1.1,3.1-1.7c0.2-0.1,0.4,0,0.6,0c0.2,0,0.4,0,0.5-0.1c0.5-0.9,1.3-1.5,2.1-2.1c0.4-0.3,0.6-1.1,1.1-1.3
			c0.9-0.5,1.1-1.3,1.1-2.2c0-0.1,0.2-0.2,0.3-0.2c0.3-0.3,0.7-0.6,1-0.8c0.6-0.4,1.8,0.3,1.8-1.1c1.1-0.5,2.5,0.6,3.1-1
			c0-0.1,0.3-0.1,0.5-0.1c3.4,0,6.7,0,9.9,0c0.6,0.7,1.2,1.3,1.6,1.8c0.6,0.2,1.6,0.2,1.7,0.5c0.2,0.9,0.8,0.7,1.3,0.7
			c2.6,0,5.2,0.1,7.8,0c1.7-0.1,2.6,0.7,3.3,2c0.5,0,1,0,1.6,0c0.1-0.3,0.1-0.8,0.3-0.9c0.8-0.3,1.2-1.6,2.4-1.2
			c0.1,0,0.4-0.2,0.4-0.3c0-0.9,0.7-0.7,1.2-0.7c3.5,0,7,0,10.6,0c0.7,0,1.4,0,1.3,0.8c1.3,0.4,2.4,0.8,3.6,1.2
			c0.1,0,0.3,0.2,0.3,0.3c0,0.7,0.5,0.7,1,0.7c0.6,0,1.2,0,1.8,0c0.4,1.2,1.5,2,2.8,2c0.7,0,1.6-0.3,1.6,1.1
			c1.1-0.6,2.5,0.7,3.1-1.1c1.5,0,3.1,0,4.7,0c0.5,0,0.9-0.4,1.4-0.5c0-0.1-0.1-0.3-0.1-0.4c1.9,0,3.7,0,5.7,0c-0.1-1,0.5-1.1,1.3-1
			c1.2,0,2.5,0,3.7,0c0.1-0.4,0.2-0.7,0.3-1.1c0.5,0,0.9,0,1.4,0c0.4,0,1.2,0,1.2-0.1c0.4-1.2,1.3-0.8,2.1-0.8
			c0.8,0,1.3-0.2,1.3-0.9c1-0.5,2.5,0.6,3-1c1-0.6,2.5,0.7,3-1.1c0.8,0,1.7,0,2.6,0c0.2-0.5,0.6-1,1-1c4.7,0,9.4,0,13.7,0
			c0.9,0.9,1.6,1.6,2.4,2.4c-0.3,1.5,1.1,2.1,2.2,2.9c0,0.5,0,1.1,0,1.3c0.6,0.6,0.9,1,1.3,1.4c0.9,0,1.9,0,2.8,0
			c0.3,0,0.7-0.1,0.7-0.2c0.1-1.1,1-0.7,1.6-0.7c0.8,0,1.6,0,2.4,0c0.4-1.4,1.5-2.1,2.9-2.1c0.6,0,1.3,0.2,1.4-0.7
			c0-0.1,0.2-0.2,0.4-0.2c1.1-0.1,2.2,0.3,3-1c0.4-0.7,1.3-1.3,2-1.9c3.4,0,6.9,0,10.4,0c0,1.2,0.9,0.9,1.6,0.9c0.7,0,1.6-0.3,1.5,1
			c2,0,3.9,0,5.7,0c0.8,0,1.3-0.1,1.3-1c2,0,3.8,0,5.7,0c0.5,0,0.9-0.4,1.4-0.6c0-0.1-0.1-0.3-0.1-0.4c3.8,0,7.7,0,11.5,0
			c0.6,0,1.4-0.3,1.4,0.7c0,0.1,0.6,0.2,0.7,0.1c0.4-0.4,0.8-0.9,1.2-1.3c0.6-0.7,1.2-1.3,2-2.1c0-0.3,0.1-0.8,0.1-1.4
			c0.8-0.4,2.1,0.4,2.1-1.2c1.4,0.6,3.1-0.7,4.2,1.1c3.1,0,6.3,0,9.4,0c0.5,1.3,1.6,1.9,2.9,2c0.6,0,1.2,0.4,1.8,0.6
			c0,0.1-0.1,0.2-0.1,0.3c0.9,0.1,1.8,0.3,1.9-0.9c0.7-0.1,1.6-0.1,1.7-0.3c0.3-1.1,1.1-0.7,1.7-0.8c1.4,0,2.7,0,4.1,0
			c0.7,0,1.5,0.1,1.5-1c2.3,0,4.5,0,6.8,0c-0.2,1.2,0.7,1,1.4,1c0.4,0,0.8-0.1,1.2,0c1.3,0.4,1.6-0.9,2.4-1.4
			C405.9,41.4,406.4,40.6,407.2,39.8z M423,100.3c1.1-1.7,1.9-3.6,3.7-5c0.3,0,0.9,0,1.5-0.1c0-1.6,0-3.2,0-4.7c0-0.7,0-1.3,1-1.3
			c0-6.5,0-12.8,0-19.2c0-0.2-0.2-0.6-0.3-0.7c-0.8-0.1-0.6-0.7-0.6-1.2c0-3.2,0-6.5,0-9.7c0-0.8-0.2-1.3-1-1.3c0-2,0-3.8,0-5.7
			c-0.1,0-0.2,0.1-0.3,0.1c-0.2-0.4-0.5-0.7-0.6-1.2c-0.2-0.8,0.5-1.9-0.9-2.4c-0.1,0-0.1-0.4-0.1-0.6c0-6,0-12,0-17.8
			c0.4-0.4,0.9-0.6,0.9-0.9c0.1-0.9,0.1-1.9,0-2.9c0-0.2-0.2-0.5-0.3-0.5c-0.2,0-0.4,0.2-0.6,0.4c-0.3,0.2-0.5,0.5-0.8,0.5
			c-1.3-0.3-1.5,1-2.3,1.5c-0.7,0.5-1.3,1.2-2,1.9c0,0.4-0.1,1-0.1,1.5c-0.1-0.1-0.2-0.1-0.2-0.2c-0.9,0.5-1.8,1-2.7,1.5
			c0,0.6,0,1.1,0,1.8c-1.2-0.3-0.9,0.5-1,1.2c0,0.3,0,0.6-0.2,0.8c-0.5,0.5-1.1,0.8-1.6,1.2c-0.4,0.4-0.7,0.9-1.1,1.3
			c-0.6,0.6-1.3,1.3-2.1,2.1c0,0.2,0.1,0.9-0.1,1.2c-0.6,0.8-1.3,1.5-2.1,2.2c-0.9,0.8-1.8,1.5-2.7,2.3c-0.4,0.4-0.8,0.8-1.1,1.2
			c-0.6,0.7-1.2,1.3-2,2.2c0,0.2,0,0.7,0,1c-1,1-1.9,1.8-2.9,2.7c0,0.4,0.1,1.1-0.2,1.5c-0.5,0.8-1.3,1.4-2,2.1
			c-0.5,0.4-1.1,0.7-1.7,1.2c-0.4,0.3-0.8,0.8-1.1,1.2c-0.6,0.7-1.3,1.4-1.9,2.1c-0.2,0.4-0.1,1-0.3,1.4c-0.6,0.8-1.3,1.5-2.1,2.2
			c-0.9,0.8-1.9,1.5-2.7,2.4c-0.8,0.9-1.4,2-2.6,1.7c-0.6,0.5-1,0.9-1.4,1.2c-0.3,1-0.6,2-1.3,2.6c-1.1,0.9-2.1,1.7-2.9,2.9
			c-0.3,0.5-0.9,0.7-1.3,1.1c-0.5,0.5-1,0.9-1.5,1.4c-0.5,0.5-1,1.1-1.5,1.6c-0.6,0.6-1.2,1.2-2,2c-0.2,0-0.8,0-1.2,0
			c-0.6,0.7-1,1.5-1.6,1.9c-0.7,0.5-1.2,1.5-2.3,1.2c-0.1,0-0.2,0.2-0.3,0.3c-0.3,0.2-0.6,0.4-0.9,0.6c-0.5,0.2-0.9,0.4-1.4,0.7
			c0,0.1,0.1,0.2,0.1,0.3c-1.6-0.3-2.3,0.9-3.2,2c-0.4,0-0.9,0-1.3,0c-0.6,0.8-1.1,1.4-1.7,2c-0.4,0.4-0.9,1-1.3,0.9
			c-1.3-0.2-1.5,1-2.3,1.5c-0.7,0.5-1.3,1.2-2,2c0,0.3,0,0.9,0,1.4c0.1-0.1,0.2-0.1,0.3-0.2c0.6,0.7,1.6,1.4,1.6,2.2
			c0.1,5.1,0.1,10.2,0.1,15.4c0,0.3-0.2,0.8-0.3,0.8c-0.9,0.1-0.7,0.7-0.7,1.3c0,8.6,0,17.3,0,25.9c0,6.6,0,13.1,0,19.7
			c0,0.4,0.1,1.1,0.2,1.1c1.1,0.1,0.8,0.9,0.8,1.5c0,0.2,0.2,0.4,0.4,0.6c0.1,0,0.4-0.1,0.5-0.2c0.5-0.5,0.8-1.3,1.3-1.6
			c1.1-0.7,2-1.5,1.8-2.7c0.7-0.7,1.3-1.3,1.9-1.8c0.7-0.7,1.3-1.3,1-2.1c2.9-2.9,5.6-5.6,8.5-8.5c0.4,0,0.9,0,1.1,0
			c1.7-1.7,3.2-3.3,4.9-5c0.3,0,0.9,0,1.2,0c0.7-0.8,1.3-1.3,1.8-2c0.6-0.8,1.8-1.1,1.6-2.4c0-0.2,0.1-0.4,0.2-0.7
			c1.5,1,2-0.5,2.7-1.1c0.9-0.8,1.4-2,2.6-1.8c0.6-0.5,1-0.9,1.5-1.4c-0.6-1.9,1.8-2.1,2.2-3.6c0.6,0,1.1,0,1.6,0
			c0.1-0.3,0.1-0.8,0.2-0.8c1.1-0.2,0.9-1,1-1.7c0-0.2,0.4-0.4,0.7-0.5c0.4-0.1,0.8,0,1.1,0c0.6-0.8-0.4-2.2,1.2-2.1
			c0-0.7,0.1-1.2,0.1-1.8c0.7,0,1.2-0.1,1.8-0.1c0-0.6,0.1-1.2,0.1-1.4c0.8-0.9,1.4-1.6,2.1-2.2c0.8-0.8,1.7-1.5,2.5-2.3
			c1.2-1.1,2.3-2.3,3.5-3.5c0.5-0.5,0.9-1,1.3-1.5c0.5-0.6,1.1-1.1,1.6-1.6c0.4-0.5,0.8-1,1.3-1.4c0.5-0.5,1.3-0.8,1.6-1.3
			c0.7-1.1,1.5-1.9,3-1.7c0-1.5,1.2-0.7,1.8-1c1.4-1.5,1.8-3.7,3.6-5C422,100.3,422.5,100.3,423,100.3z M34.7,82.3
			c-1.7,1.7-3.2,3.3-4.7,4.8c-0.6,0.4-1.8-0.3-1.8,1.1c-0.8,0.2-1.9-0.4-2,0.9c-0.9-0.2-0.8,0.8-1.2,1.1c-0.5,0.4-1.1,0.8-1.5,1.3
			c-0.1,0.1,0.1,0.6,0.3,0.7c0.3,0.1,0.7,0.1,1.1,0.1c10,0,19.9-0.1,29.9,0.1c2.2,0.1,3.3-1.3,4.5-2.4c0.9-0.8,1.5-1.9,3-1.7
			c0-1.5,1.2-0.7,1.8-1.1c-0.1-0.1-0.3-0.3-0.4-0.4c1.2-0.6,2.3-1.3,3.5-1.9c-0.2-0.2-0.4-0.4-0.5-0.5c0.8-0.1,1.8,0.4,1.9-1
			c0.8-0.2,1.9,0.4,1.9-0.9c0.8-0.3,2,0.4,2-1.1c0.6,0,1.2-0.1,1.7-0.1c0-0.1-0.1-0.2-0.1-0.4c1.6-0.8,3-2,5.1-1.6
			c0.1-0.4,0.2-0.7,0.4-1.1c1.2,0,2.4,0,3.4,0c1.6-1.9,3.8-0.3,5.3-1.2c0.2-0.7-0.2-1.5,0.9-2c0.7-0.3,1.4-1.4,1.2-2.8
			c-0.2-2.6-0.1-5.2-0.1-7.8c0.4-0.1,0.7-0.2,1-0.3c0-0.6,0-1.2,0-1.5c0.4-0.4,0.9-0.7,0.9-0.9c-0.1-1.5,1-2,1.9-2.6
			c0.5-1-0.6-2.5,1.2-3.1c0-0.8,0.4-1.8-1-1.9c0-0.5,0-0.9,0-1.4c0-4.7,0-9.4,0-14.2c0-0.4-0.3-0.8-0.5-1.2
			c-0.2,0.4-0.3,0.8-0.5,1.1c-0.2,0.3-0.3,0.6-0.6,0.8c-0.4,0.4-1,0.8-1.4,1.3c-0.7,1-1.4,2-2.8,1.7c-0.2,0.4-0.3,0.9-0.5,0.9
			c-0.9,0-1.7,0.2-2.2,1c-0.2,0.4-0.6,0.7-0.9,1c-0.6,0.6-1.3,1.2-2.2,2c-0.2,0-0.8,0-1.2,0c-0.6,0.7-1.1,1.3-1.6,2
			c-1.4,0.2-2.4,0.8-2.9,2c-0.5,0-1.3-0.1-1.6,0.2c-0.8,0.7-1.5,1.7-2.2,2.5c-0.4,0.5-0.8,1.2-1.3,1.3c-0.8,0.1-1.5,0.2-2,1
			c-0.5,0.7-1.3,1.3-2.2,2.1c-0.2,0-0.8,0-1.3,0c-1.7,1.4-2.4,4-4.9,4.1c-0.6,0.7-1.1,1.2-1.6,1.9c-0.4,0-0.9,0-1.4,0
			c-0.3,0.6-0.8,0.9-1.2,1.3c-0.4,0.5-0.8,1.1-1.2,1.6c-0.4,0.4-0.9,1-1.4,1c-1.5,0-1.8,1.2-2.7,1.9c-0.9,0.4-2.3,0.6-2.5,1.3
			c-0.6,1.8-2.4,1.7-3.5,2.7c-0.5,0.4-1.6,0.5-2.2,1.2c-0.5,0.5-1,0.9-1.5,1.4c-0.4,0.5-0.8,1-1.2,1.5c-0.4,0.4-0.7,1-1.2,1
			c-0.8,0.1-1.5,0.2-2,1c-0.5,0.7-1.3,1.3-2.1,2.1C35.5,82.3,35,82.3,34.7,82.3z M246.5,82.3c-0.5,0.7-0.9,1.3-1.4,1.9
			c-0.3,0.4-0.7,1-1.2,1c-0.9,0.1-1.6,0.1-2.1,1c-0.2,0.4-0.5,0.7-0.9,1c-0.5,0.5-1.1,0.8-1.6,1.3c-0.6,0.6-1.3,1.1-1.8,1.8
			c-0.5,0.6-0.9,1.2-1.3,1.8c-0.3,0.5-0.4,1-0.6,1.5c-0.1,0-0.3-0.1-0.4-0.1c0,0.5,0,1,0,1.2c-0.6,0.7-1,1.1-1.4,1.5
			c-0.2,0.2-0.4,0.5-0.5,0.7c0.3,0.1,0.5,0.3,0.8,0.3c1.4,0,2.8,0,4.2,0c0.3,0,0.9,0.2,0.9,0.3c0.1,0.8,0.7,0.6,1.2,0.6
			c3.5,0,7,0,10.6,0c0.4,0,0.8,0,1.3-0.1c0-1.7,0-3.4,0-5c0-0.3,0.2-0.9,0.3-0.9c0.8-0.1,0.7-0.6,0.7-1.1c0-0.6,0-1.2,0-1.8
			c1-0.5,1.9-0.9,2.9-1.5c-0.1-0.9,0-2,1.7-1.7c0.1,0,0.2,0,0.2-0.1c0.2-1.3,1.3-0.7,2.1-1c-0.2-1.1,0.6-0.9,1.3-0.9
			c1.6,0,3.2,0,4.8,0c0.3,0,0.8-0.1,0.8-0.2c0.1-1.1,0.8-0.7,1.4-0.8c1,0,1.9,0,2.9,0c0.3,0,0.6,0.1,0.8,0.3
			c0.2,0.2,0.4,0.4,0.6,0.7c0.2-0.3,0.4-0.6,0.7-1c1.4,0.3,2.7,0,3.7-1.3c0-0.7,0-1.6,0-2.4c-1.3-0.7-2.2-1.6-2-3.2
			c-0.2,0-0.4-0.1-0.5-0.1c-4.2,0-8.4,0-12.6,0c-0.4,0-0.8,0.4-1.2,0.6c0,0.1,0.1,0.2,0.1,0.3c-1.2,0-2.4,0-3.3,0
			c-1.2,1.8-3,0.5-4.3,1.2c-0.1,0.2-0.2,0.6-0.2,0.8c-0.8,0.2-1.8-0.3-2,0.9c0,0.1-0.3,0.1-0.4,0.1c-1.5-0.2-2,1.1-2.8,2
			C247.5,82.3,246.9,82.3,246.5,82.3z M90.2,90.9c-0.4,0.4-0.7,0.7-0.9,1c0.4,0.1,0.7,0.4,1.1,0.4c2.3,0,4.5,0,6.8,0
			c0.8,0,1.6,0,2.4,0c0.2,0,0.5-0.2,0.5-0.3c0-0.1-0.1-0.4-0.3-0.5c-1-0.7-1.9-1.5-1.7-2.7c-0.5-0.5-0.9-0.9-1.4-1.4
			c-1.1,0.4-2.8-0.9-4,1c-0.4,0-0.9,0-1.6,0c0.4,1-0.4,0.9-1,1.1C90.2,90,90.2,90.5,90.2,90.9z"/>
		<path class="st0" d="M119.2,95.3c0,1.1,0.7,1,1.5,1c2.8,0,5.6,0,8.5,0c-0.1,1.1,0.7,1.1,1.4,1.1c6.8,0,13.7,0,20.5,0
			c0.5,0,1.1-0.3,1.3,0.6c0,0.2,0.7,0.3,1.1,0.3c6.5,0,13,0,19.4,0c4,0,8.1,0,12.1,0c0.5,0,1.2-0.2,1.3,0.7c0,0.2,0.6,0.3,1,0.3
			c3.5,0,7,0,10.4,0c0.4,0,0.9,0,1.4,0c0,1,0.5,1,1.3,1c11.8,0,23.7,0,35.5,0c0.6,0,1.5-0.3,1.3,1c4.5,0,8.9,0,13.2,0
			c2.6,0,5.2,0,7.8,0c0.4,0,0.8-0.3,1.2-0.5c0-0.1-0.1-0.3-0.1-0.4c2.9,0,5.8,0,8.8,0c0-1,0.6-1,1.4-1c2.8,0,5.7,0,8.5,0
			c0.5,0,1.2,0.2,1.2-0.7c0-0.1,0.4-0.3,0.6-0.3c0.2-0.1,0.5,0,0.7,0c18.8,0,37.6,0,56.4,0c0.7,0,1.5-0.1,1.5,1c3.9,0,7.8,0,11.4,0
			c0.5,0.4,0.8,0.7,1.1,1c0.2,0.2,0.3,0.4,0.3,0.7c0,3.7,0,7.4,0,11.1c-0.1,0-0.3-0.1-0.4-0.1c-0.2,0.5-0.6,0.9-0.6,1.4
			c0,16.9,0,33.8,0,50.6c0,0.6-0.1,1.2,0.8,1.3c0.2,0,0.2,1.1,0.3,1.8c-0.6,0-1,0-1.4,0c-7.1,0-14.2,0-21.4,0
			c-0.6,0-1.3,0.3-1.4-0.7c0-0.1-0.6-0.2-1-0.2c-2.2,0-4.5,0-6.8,0c0-0.9-0.5-1.1-1.3-1c-1.2,0.1-2.5,0.1-3.7,0
			c-0.5,0-0.9-0.4-1.4-0.6c0-0.1,0.1-0.3,0.1-0.4c-2.2,0-4.5,0-6.7,0c-0.5,0-1.1,0.2-1.2-0.6c0-0.2-0.7-0.3-1-0.3c-3,0-5.9,0-8.9,0
			c-0.5,0-1.1,0.1-1.1-0.7c0-0.1-0.5-0.3-0.8-0.3c-5.8,0-11.5,0-17.3,0c-0.2,0-0.6,0-0.7,0.1c-0.3,1.5-1.5,0.9-2.3,0.9
			c-25.6,0-51.3,0-76.9,0c-0.8,0-1.8-0.5-2.2,0.8c0,0.1-0.7,0.1-1,0.1c-4.2,0-8.4,0-12.6,0c-0.5,0-1.2-0.2-1.2,0.7
			c0,0.1-0.6,0.3-1,0.3c-2.9,0-5.8,0-8.8,0c0,0.9-0.5,1-1.3,1c-6.9,0-13.8,0-20.6,0c-0.8,0-1.3,0-1.3-1c-4.6,0-9.1,0-13.6,0
			c0-0.1,0.1-0.3,0.1-0.4c-0.5-0.2-1-0.7-1.5-0.7c-13.3,0-26.6,0-39.8,0c-0.3,0-0.6,0-0.9,0.1c0,0.9-0.6,1-1.3,1c-6.5,0-13,0-19.6,0
			c-0.8,0-1.3-0.1-1.3-1c-2.3,0-4.5,0-6.7,0c-0.1,0.3-0.2,0.6-0.2,1c-4.3,0-8.5,0-12.8,0c0-1.1-0.7-1-1.5-1c-2.2,0-4.4,0-6.6,0
			c-0.4,0-0.7-0.4-1.1-0.6c-0.3-0.2-0.7-0.4-1-0.4c-2.2,0-4.4,0-6.6,0c-0.7,0-1.5,0.1-1.5-1c-1.6,0-3.2,0-4.8,0
			c-0.5,0-0.9-0.4-1.4-0.6c0-0.1,0.1-0.2,0.1-0.3c-0.5,0-1.1-0.1-1.8-0.1c0-6.3,0-12.5,0-18.8c-0.4-0.1-0.7-0.2-1.1-0.3
			c0-0.7,0-1.3,0-2c0-3.6,0-7.2,0-10.8c0-0.5,0.2-1.1-0.6-1.2c0,0-0.1-0.6,0-0.8c0.1-0.4,0.6-0.7,0.6-1.1c0-5.3,0-10.6,0-16
			c0-0.4-0.4-0.7-0.6-1.1c-0.1-0.3-0.3-0.5-0.3-0.8c0-4.2,0-8.3,0-12.5c0-0.2,0.3-0.5,0.4-0.7c0.2,0.2,0.3,0.5,0.6,0.5
			c0.6,0.2,1.3,0.4,1.9,0.4c0.5,0,0.9-0.4,1.4-0.6c0-0.1-0.1-0.2-0.1-0.3c10.6,0,21.1,0,31.7,0c0.1,1.5,1.1,0.9,1.9,1
			c0.7,0,1.5,0.2,1.3-1C79.3,95.3,99.2,95.3,119.2,95.3z M140.1,123.3c-21.6,0-43.2,0-64.8,0c-0.1,0.4-0.2,0.7-0.3,1
			c-4.4,0-8.6,0-12.9,0c-0.7,0-1.8,0.6-2-0.8c0-0.1-0.2-0.1-0.3-0.1c-2.1,0-4.3,0-6.4,0c0,1.1,0,2,0,2.9c1.6,0,3.1,0,4.7,0
			c0,1,0.6,1.1,1.4,1.1c5.8,0,11.6,0,17.4,0c0.6,0,1.2-0.4,1.7-0.6c0-0.1-0.1-0.3-0.1-0.4c0.5,0,1,0,1.4,0c20.6,0,41.3,0,61.9,0
			c0.7,0,1.6,0.2,1.5-1c5.6,0,11.1,0,16.7,0c0-1,0.7-1,1.4-1c3.5,0,7,0,10.6,0c0.7,0,1.4,0,1.3-1c3.6,0,7.1,0,10.7,0
			c0-1.1,0.7-1,1.5-1c1.6,0,3.1,0,4.7,0c0.3,0,0.9-0.1,0.9-0.2c0.2-1.2,1.1-0.8,1.7-0.8c4.1,0,8.2,0,12.2,0c0.1-0.4,0.2-0.7,0.3-1
			c10.6,0,21.1,0,31.7,0c-0.1,1.2,0.7,1,1.4,1c1.2,0,2.3,0,3.5,0c1.7,0,3.4,0,5.1,0c0-1.1,0-2,0-3c-2.3,0-4.6,0-6.9,0
			c0.2-1.2-0.6-1-1.2-1c-9.8,0-19.5,0-29.3,0c-2.2,0-4.3,0-6.5,0c-0.3,0-1,0.2-1,0.4c-0.1,0.8-0.7,0.6-1.2,0.6c-3.9,0-7.8,0-11.8,0
			c-0.5,0-0.9,0.4-1.4,0.6c0,0.1,0.1,0.3,0.1,0.4c-2.2,0-4.5,0-6.7,0c0,0.1,0.1,0.3,0.1,0.4c-0.4,0.2-0.8,0.5-1.3,0.5
			c-3,0-5.9,0-8.9,0c-0.4,0-1,0.2-1,0.3c-0.1,0.9-0.7,0.7-1.2,0.7c-3.6,0-7.1,0-10.7,0c-0.4,0-1,0.1-1,0.2c-0.1,1-0.8,0.7-1.4,0.7
			c-4.8,0-9.7,0-14.5,0C140.7,122.2,140.1,122.3,140.1,123.3z"/>
		<path class="st1" d="M281.3,77.3c-1.6,0-0.8-1.2-1-1.6c-0.8-0.7-1.7-1.1-2-1.8c-0.3-0.8-0.8-0.6-1.3-0.6c-3.9,0-7.8,0-11.7,0
			c0-1-0.6-1.1-1.3-1c-0.6,0-1.2-0.1-1.8,0c-0.4,0.1-0.7,0.4-1,0.6c-0.3,0.2-0.6,0.3-0.9,0.4c-0.8,0.2-1.9-0.5-2.3,0.8
			c0,0.1-0.6,0.1-0.9,0.1c-1.2,0-2.5,0-3.8,0c-0.1,0.4-0.2,0.7-0.2,0.9c-1,0.7-2.6-0.7-3.1,1.1c-0.6,0.4-1.8-0.6-1.9,0.9
			c-0.8,0.3-1.9-0.4-2.2,1c0,0.1-1,0.1-1.3,0.1c-1.3,1.3-2.5,2.6-3.8,4c-0.2,0-0.8,0-1,0c-0.6,0.5-1,0.9-1.5,1.4
			c0.3,1.2-0.8,1.9-1.7,2.6c-0.5,0.4-0.9,1.2-1.3,1.7c-0.4,0.4-0.8,1-1.3,1.2c-0.7,0.2-0.7,0.6-0.7,1c0,0.5,0.1,1.1-0.7,1.1
			c-0.1,0-0.3,0.2-0.3,0.3c0.4,1.1-0.7,1.6-1.1,2.4c-0.4,0.6-1.1,1-1.8,1.6c0,0.3-0.1,0.9-0.1,1.6c-0.5,0-0.9,0.1-1.3,0.1
			c-8.4,0-16.9,0-25.3,0c-0.6,0-1.3,0.3-1.5-0.7c0-0.1-0.7-0.3-1-0.3c-3.6,0-7.1,0-10.7,0c-0.6,0-1.4,0.2-1.2-1c-0.6,0-1.1,0-1.6,0
			c-10.3,0-20.6,0-30.8,0c-0.6,0-1.5,0.4-1.7-0.8c0-0.1-0.7-0.2-1.1-0.2c-6.7,0-13.4,0-20.2,0c-0.4,0-0.9,0-1.4,0
			c-0.1-1.1-0.8-1-1.7-1c-2.8,0-5.6,0-8.4,0c-0.1-0.4-0.2-0.6-0.3-1.1c-1.5,0-3.1,0-4.6,0c-3.1,0-6.2,0-9.2,0c-2.3,0-2.8-0.5-3-2.5
			c-1.9-1.9-3.6-3.6-5.4-5.5c-2.3,0-4.8,0-7.4,0c0,1.3-0.9,1-1.7,1c-0.9,0-1.5,0-1.6,1.3c0,0.6-0.9,1.2-1.4,1.8
			c-0.2,0.3-0.5,0.5-0.5,0.8c-0.1,1,0,2,0,3c-0.5,0-0.8,0.1-1.2,0.1c-6.5,0-13,0-19.6,0c-0.2,0-0.5,0-0.7,0
			c-0.2-0.1-0.4-0.2-0.5-0.4c0-0.1,0.1-0.3,0.3-0.5c0.3-0.3,0.7-0.6,1.2-1.1c0.2,0,0.7,0,1.2-0.1c1.3-1.1,1.8-3.2,4.1-3
			c0-0.1-0.1-0.2-0.1-0.3c0.5-0.2,0.9-0.4,1.4-0.6c0.3-0.2,0.5-0.4,0.9-0.5c0.5-0.2,1.1-0.4,1.8-0.7c0.1-1,1-0.8,1.9-0.8
			c0.7,0,1.6,0.3,1.4-0.9c0.8-0.3,1.9,0.4,2.1-0.9c0-0.1,0.5-0.1,0.8-0.1c0.5,0,1.1,0.2,1.1-0.7c0-0.1,0.5-0.3,0.8-0.3
			c0.9,0,1.8,0,2.8,0c0.6,0,1.4,0.3,1.4-0.7c0-0.1,0.5-0.2,0.7-0.2c0.8,0,1.7-0.1,2.5,0c1.4,0.2,2-0.7,2.7-1.6
			c0.2-0.3,0.6-0.4,1-0.7c0-2.7,0-5.4,0-8.2c0-0.6-0.3-1.5,0.8-1.7c0.1,0,0.2-0.3,0.2-0.5c0.1-0.6-0.2-1.3,0.8-1.6
			c0.2,0,0.2-1,0.2-1.4c0.7-0.7,1.3-1.3,2-1.9c0.2-0.2,0.5-0.4,0.8-0.4c1-0.1,1.9,0,2.9,0c0.5,0,1.3,0.3,1.3-0.7
			c0-0.1,0.5-0.2,0.7-0.2c1.8,0,3.7-0.3,5.4,0.1c1,0.2,1.7,0.6,2.7-0.1c0.3-0.2,1.1-0.3,1.3,0.6c0,0.2,0.5,0.3,0.8,0.3
			c0.6,0,1.3,0,2,0c0,0.9,0.5,1.1,1.3,1c1.2-0.1,2.4,0,3.6,0c0-0.1-0.1-0.3-0.1-0.4c0.5-0.2,0.9-0.4,1.4-0.6c0.1,0,0.3,0,0.3,0
			c0.4-1.3,2.4-0.3,2.7-1.8c0.1-0.4,0.7-0.6,1-1c1.5,0.1,2.3-0.9,3.1-2.1c0.5,0,1.1,0,1.6,0c0.5-1.2,1.5-1.9,3.1-2.1
			c0-1.3,0.9-0.9,1.7-1c0.7,0,1.6,0.3,1.5-1c1,0,1.8,0,2.7,0c0.2,0.3,0.4,0.6,0.6,1c0.2-0.3,0.4-0.7,0.6-0.8
			c0.6-0.2,1.2-0.2,1.8-0.3c0,0.1-0.1,0.3-0.1,0.4c0.4,0.2,0.8,0.6,1.3,0.7c0.6,0.1,1.2,0,1.8,0c0.5,1.3,1.5,2,2.9,2
			c0.6,0,1.3-0.2,1.4,0.8c0,0.1,0.5,0.3,0.7,0.2c0.8-0.1,1.3,0.1,1.3,0.9c0.8,0.2,1.7-0.3,2.1,0.9c0.1,0.3,1.6,0.1,2.6,0.2
			c0.1,0.3,0.2,0.6,0.3,0.9c0.7,0.3,1.8-0.4,2,1c0,0.1,0.5,0.1,0.8,0.2c0.5,0,1-0.1,1.3,0.7c0.1,0.3,1,0.3,1.6,0.4
			c0.2,0.3,0.5,0.6,0.7,0.9c0.2-0.2,0.3-0.6,0.6-0.7c0.2-0.1,0.6-0.1,0.9-0.1c0.1,1.2,1,0.6,1.6,0.8c0.6,0.1,1.5-0.4,1.5,0.8
			c0,0.1,0.4,0.3,0.5,0.2c0.3-0.2,0.4-0.5,0.8-0.9c0.4,0,0.9,0,1.4,0c0.3,0.3,0.5,0.6,0.8,0.9c0.2-0.3,0.4-0.6,0.7-0.7
			c0.9-0.4,1.3-1.7,2.6-1.3c0.5,0.1,1.1,0.2,1.4-0.7c0.1-0.2,1.2-0.1,1.8-0.3c0.5-0.1,0.9-0.4,1.4-0.6c0-0.1-0.1-0.3-0.1-0.4
			c0.4,0,0.9,0,1.3,0c0.4,0,0.9,0,1.1,0c2.7-2.7,5.2-5.3,7.9-8c0.6,0,1.5,0,2.3,0c0.5-0.7,0.9-1.4,1.5-1.9c0.1-0.1,0.7,0.3,1.1,0.5
			c0,0.1-0.1,0.2-0.1,0.4c1.2,0,2.5-0.1,3.7,0c0.5,0,0.9,0.4,1.3,0.7c0.6,0.5,1.8-0.4,1.8,1.1c0.6,0,1.2,0.1,1.7,0.1
			c0.6,0.7,1,1.3,1.6,2c1.5,0,3.2,0,4.9,0c0.3,0,0.5-0.4,0.8-0.6c0.3-0.2,0.7-0.4,0.8-0.3c0.8,0.9,1.4,1.8,2.2,2.6
			c0.4,0.4,0.8,0.7,1.2,1.3c0.9,0,1.7,0,2.6,0c0-0.1-0.1-0.2-0.1-0.3c0.5-0.2,0.9-0.4,1.4-0.6c0.3-0.2,0.6-0.4,0.9-0.6
			c0.2-0.1,0.4-0.4,0.5-0.4c1.2,0.4,1.5-0.9,2.4-1.2c0.2-0.1,0.2-0.5,0.3-0.8c1.7-0.2,1.7-0.2,2.1-1.1c2.3,0,4.7,0,7,0
			c0.7,1,2.1,0.6,2.7,1.7c0,0.1,0.1,0.2,0.1,0.2c1.3-0.3,1.9,1.2,3.1,1.1c1.5,0,2.5,0.7,3,2c0.6,0,1.2-0.1,1.8,0
			c0.4,0.1,0.8,0.4,1.2,0.9c2.6,0,5.1,0,7.7,0c0-0.1-0.1-0.2-0.1-0.3c0.5-0.2,0.9-0.5,1.4-0.6c1.6-0.1,3.1,0,4.8,0
			c0-0.9,0.6-1,1.3-1c1.2,0.1,2.5,0,3.7,0c0.3,0,0.8,0,0.8-0.1c0.7-1.8,2.3-0.7,3.4-0.9c0.7-0.2,1.7,0.4,2.1-0.8
			c0-0.1,0.6-0.1,0.9-0.1c0.6,0,1.1,0,1.7,0c0.1-0.4,0.2-0.7,0.3-1.1c0.7,0,1.3,0.1,2,0c0.3-0.1,0.6-0.4,1-0.6
			c0.2-0.1,0.5-0.4,0.7-0.4c0.7-0.1,1.4,0,2,0c0.5-1.9,2.1-0.5,3.1-1.2c0.1-1.1,1.1-0.8,1.9-0.8c0.8,0,1.3,0,1.3-1
			c2.8,0,5.4-0.1,8.1,0.1c0.6,0,1.4,0.6,1.7,1.2c0.4,0.8,1.9,1.2,1,2.5c1,0.4,1,0.4,1.1,1.8c0.8,0.8,1.5,1.5,2.2,2.2
			c0,0.1-0.1,0.1-0.1,0.2c0.6,0,1.2,0.1,1.8,0.1c0,0.1-0.1,0.2-0.1,0.3c0.5,0.2,1,0.6,1.4,0.5c1-0.2,2.4,0.9,3-0.9
			c1.2,0,2.4,0,3.7,0c0-0.9,0.5-1.2,1.3-1c0.3,0,0.6,0,0.8,0c1.5,0.3,2.3-0.6,3.1-1.6c0.2-0.2,0.7-0.3,1-0.4
			c0.7-0.2,1.8,0.5,2.1-0.9c0-0.1,0.5-0.1,0.8-0.2c0.6,0,1.3,0,1.7,0c0.6-0.7,1.1-1.3,1.7-2c0.6-0.2,1.7,0.5,1.8-1
			c1.3,0,2.5,0,3.8,0c0.6,0,1.4-0.2,1.1,1c0.8,0,1.4,0,2,0c0.5,0,1.1-0.2,1.1,0.7c0,0.1,0.5,0.3,0.8,0.3c1,0,1.9,0,3,0
			c0,0.9,0.5,1.1,1.3,1c1.2-0.1,2.4-0.1,3.6,0c0.8,0,1.3-0.1,1.3-1c0.9,0,1.8,0,2.7,0c0-0.1-0.1-0.2-0.1-0.4
			c0.5-0.2,0.9-0.5,1.4-0.6c1.6-0.1,3.1,0,4.7,0c0-0.1-0.1-0.2-0.1-0.3c0.5-0.2,0.9-0.6,1.4-0.6c1.9-0.1,3.8,0,5.6,0
			c0.6,0.7,1.1,1.3,1.7,1.9c0.6,0.2,1.6-0.3,2,0.9c0.1,0.3,1.6,0,2.4,0c0.5-0.6,0.8-1.5,1.4-1.7c1.3-0.4,0.6-1.3,1-1.9
			c1-1,2.1-2.1,3.3-3.3c2.9,0,6.1,0,9.2,0c0.6,0.7,1.1,1.3,1.8,2c2.4-0.7,3.4,1.4,4.9,2.9c0.4,0,0.9,0,1.4,0c0.6-0.7,1-1.3,1.6-1.9
			c0.5-0.6,1.1-1.2,1.7-1.7c0.2-0.2,0.5-0.3,0.8-0.3c0.7,0,1.4,0,1.9,0c0.3-0.4,0.4-0.7,0.6-1c0.2,0.3,0.4,0.6,0.7,0.8
			c0.4,0.2,0.9,0.3,1.2,0.2c0.4-0.1,0.6-0.5,1.2-1c0.5,0,1.4,0,2.3,0c0.7,0,1.4,0.1,1.3-0.9c1,0,1.9,0,3.2,0
			c-0.5,0.6-0.8,0.9-1.2,1.5c0.3,2-2,2.3-2.9,4.3c0.1,0.8-0.8,1.6-1.9,2.2c-0.4,0.3-0.8,0.7-1.1,1.1c-0.7,0.9-1.3,1.9-2.1,2.7
			c-0.3,0.3-0.8,0.4-1.1,1c-0.6,1-0.8,0.9-0.8,1.7c-1.9,1.9-3.6,3.6-5.4,5.5c-0.3,0-0.8,0-1.3,0c0.1,0.1,0.2,0.3,0.4,0.4
			c-0.7,0.7-1.5,1.4-2.2,2.2c-0.1-0.1-0.3-0.2-0.4-0.4c0,0.6,0,1.1,0,1.4c-0.8,0.8-1.4,1.4-2,2.1c-0.5,0.5-1.1,0.9-1.6,1.4
			c-0.5,0.5-1,1-1.5,1.5c-0.5,0.5-1,1-1.6,1.5c-0.5,0.4-0.9,0.9-1.4,1.4c-0.4,0.5-0.8,1-1.2,1.5c0,0-0.1,0-0.1,0
			c-1.6-0.2-2.3,0.9-3,2c-0.2,0.3-0.7,0.5-1,0.8c0,0.1,0.1,0.2,0.1,0.3c-0.6,0-1.1,0-1.7,0c0,0.1,0.1,0.2,0.1,0.3
			c-0.4,0.2-0.8,0.6-1.3,0.6c-0.7,0.1-1.4-0.1-1.1,1c-0.7,0-1.2,0-1.6,0c-0.7,1-1.2,1.9-2.6,2c-0.5,0-1,0.6-1.4,1
			c-0.6,0.6-1,1.2-1.6,1.9c-0.4,0-1,0-1.2,0c-1.4,1.4-2.6,2.6-3.8,3.8c-0.5,0.4-1.7-0.4-1.7,1.2c-0.6,0-1.2,0.1-1.8,0.1
			c0,0.6-0.1,1.2-0.1,1.9c-2.2,0-4.3,0-6.4,0c-0.3,0-0.5-0.5-0.9-0.9c-20.7,0-41.6,0-62.6,0c0.1,1-0.6,1-1.3,1c-3.2,0-6.4,0-9.7,0
			c0,0.9-0.6,1.1-1.3,1c-2.3,0-4.6,0-6.8,0c-0.3,0-0.6-0.2-0.9-0.3c0.2-0.2,0.5-0.4,0.6-0.7c0.2-0.5,0.4-1,0.3-1.5
			c-0.2-1.3,0.9-1.8,1.6-2.5c0.4-0.4,1.2-0.7,1.3-1.1c0.3-1.4,1.3-0.8,2.1-0.9c0.6-0.1,1.4,0.1,1.1-1c1,0,1.9,0,2.7,0
			c0.3-0.8,0.3-0.8,3.1-1c0-0.8,0.5-1,1.3-1c1.2,0.1,2.3,0,3.5,0c0.6,0,1.4,0.3,1.4-0.8c0-0.1,0.4-0.2,0.6-0.2c0.6,0,1.1-0.1,1.7,0
			c1.4,0.2,1.9-1,2.7-1.6c1.2-0.9,0.8-2,0.9-3.1c0-0.6,0.2-1.3-0.7-1.5c-0.1,0-0.2-0.5-0.2-0.7C281.3,78.7,281.3,78.1,281.3,77.3z
			 M284.1,59.1c0.1,0.9,0.1,1.9,0.3,2c1.2,0.4,0.7,1.3,0.7,2c0,0.7,0,1.3,1,1.3c0.1,0.7,0.1,1.2,0.2,1.8c1,0,1.9,0,2.9,0
			c0-1.1,0-2.1,0-3.1c0-0.2,0-0.7-0.1-0.7c-1.4-0.3-0.7-1.3-0.9-2.1c-0.1-0.5-0.4-0.9-0.6-1.4c-0.1,0-0.2,0.1-0.3,0.1
			c0-0.5,0-1,0-1.3c-0.4-0.5-0.7-0.8-1-1.1c-0.2-0.2-0.6-0.5-0.8-0.4c-1.9,0.3-4.1-1-5.7,1c-0.6,0.7-1.7,1.1-1.5,2.4
			c0.1,0.6,0.4,1.5-0.7,1.6c-0.1,0-0.2,0.3-0.2,0.4c0,1.1,0,2.3,0,3.4c1.1,0,2,0,2.9,0c0-0.6,0.1-1.2,0.1-1.7
			c0.3-0.1,0.7-0.2,0.9-0.4c1-0.9,0.9-2.6,2-3.4C283.5,59.4,283.8,59.3,284.1,59.1z M230.3,76.2c-0.4-1.2,0.7-2.6-1.1-3.2
			c0-0.6-0.1-1.2-0.1-1.7c-3,0-5.9,0-8.6,0c-0.6,0.7-1.1,1.2-1.7,1.9c-0.4,0-0.9,0.1-1.5,0.1c0,2,0,3.9,0,5.9c0.3,0,0.5,0.1,0.7,0.1
			c2.2,0.1,2.2,0.1,2.2-2.1c0-0.3,0.1-0.7,0.3-0.9c0.3-0.3,0.7-0.6,1-0.8c0-0.1-0.1-0.1-0.1-0.2c0.5,0,1,0,1.6,0c0-1.4,1-1,1.8-1
			c1,0,2.2,0.9,2.6,1.9C228.3,76.2,229.2,76.2,230.3,76.2z M335.5,87.2c0.9,0,2.4,0.2,2.5,0c0.4-1.3,1.4-0.7,2.1-1
			c0.1,0,0.1-0.2,0.2-0.3c0.2-0.2,0.4-0.4,0.6-0.5c0.1,0.3,0.4,0.6,0.4,0.8c0.1,0.7,0,1.3,0,2c-0.3,0.1-0.4,0.1-0.6,0.1
			c-0.1,0-0.3,0.1-0.4,0.1c-0.3,2.9-0.3,2.9,2.5,2.9c0.4,0,0.9,0,1.3,0c0.2-0.4,0.2-0.9,0.4-0.9c1.1-0.2,0.7-1,0.7-1.6
			c0-0.9,0-1.8,0-2.6c0-0.2,0-0.7-0.1-0.7c-1.3-0.3-0.7-1.4-1.1-2c-0.4-0.4-0.7-0.7-1.1-1.2c-2,0-4.2,0-6.4,0
			C335.2,85.8,335.2,85.8,335.5,87.2z M362.2,73.2c0-1.6,0-3.2,0-4.7c0-0.5-0.4-1-0.6-1.5c-0.1,0-0.3,0.1-0.4,0.1c0-0.6,0-1.1,0-1.3
			c-0.6-0.5-0.9-0.9-1.4-1.4c-2.1,0-4.5,0-6.8,0c-0.2,0-0.5,0.1-0.7,0.3c-0.3,0.3-0.6,0.6-1,1c0,0.7,0,1.6,0,2.8
			c1-0.7,2.4,0.7,3.1-1c0-0.1,0.3-0.1,0.4-0.1c1.1,0,2.2,0,3.7,0c-1.3,1.5,0.8,1.8,0.7,2.9c-0.8,0-1.4,0.1-2,0.1c0,1,0,1.9,0,2.9
			c1.4,0,2.6,0,3.9,0C361.5,73.3,361.8,73.2,362.2,73.2z M127.3,80.3c0.6,0,1.2,0,1.7,0c0.9,0.1,1.3-0.2,1.2-1.2
			c-0.1-0.7,0.1-1.5,0-2.1c-0.3-1.3,0.8-1.8,1.4-2.7c0.3-0.4,0.8-1,1.1-0.9c0.9,0.1,2.1-0.8,2.6,0.7c0,0.1,0.3,0.1,0.4,0.1
			c0.8,0,1.6,0,2.3,0c0.4-1.6,0.2-2.9-1.2-3.9c-2.8,0-5.7,0-8.4,0c-0.8,1,0.7,2.6-1.2,3.1C127.3,75.7,127.3,77.8,127.3,80.3z
			 M200.4,89.2c-0.6-1.5,0.9-3.2-1.1-4.2c0-0.5,0-1,0-1.3c-0.7-0.6-1.4-1-1.9-1.6c-0.8-1-1.4-2-3-1.8c-1,0.1-2,0-3,0c-1,0-2,0-3,0
			c0,1.4,0,2.7,0,4.1c1.1-0.4,2.6,0.8,3.2-1c0.9,0,1.7,0,2.6,0c0.5,0.9,0.9,1.8,1.5,2.9c1.5,0.4,0,2.1,0.8,3
			C197.6,89.2,198.9,89.2,200.4,89.2z M158.1,79.3c0.2,0.7,0.2,1.8,0.4,1.8c1,0.2,0.7,0.8,0.7,1.4c0,0.5,0,1.1,0,1.6c1.1,0,2,0,3,0
			c0-1.6,0-3.1,0-4.8c-1.4-0.1-0.7-1.3-1.1-1.9c-0.4-0.4-0.8-0.7-1.3-1.2c-0.9,0-2-0.1-3.2,0c-1.6,0.2-3.5-0.7-4.9,0.9
			c-0.5,0.5-1.2,1-1.4,1.6c-0.2,1.1-0.1,2.2-0.1,3.3c1,0,1.9,0,2.9,0c0-0.4,0.1-0.7,0.1-1c0-1.1,1-1.6,1.6-1.8
			C155.8,79.1,157,79.3,158.1,79.3z M310.3,71.7c0,1.4,0,2.9,0,4.5c1,0,1.9,0,3,0c0-1,0-1.9,0-2.8c1,0,1.9,0,2.9,0
			c-0.1,0.8,0.6,1.8-0.8,2c-0.1,0-0.2,0.3-0.2,0.4c0,0.8,0,1.6,0,2.4c1.4,0,2.6,0,3.6,0c0.6-0.5,0.9-0.9,1.4-1.4
			c-0.5-1.1,1-2.8-1-3.8c0-0.5,0-1,0-1.3c-0.5-0.5-0.9-0.8-1.4-1.3c-1.9,0-4.1,0-6,0C311.2,70.8,310.8,71.2,310.3,71.7z M341.4,71.2
			c1.3,0,2.5,0,3.8,0c0-1.5,0-2.9,0-4.3c0-0.2-0.3-0.4-0.4-0.6c-0.6-0.6-1.2-1.2-1.9-1.9c-2.4,0-5.1,0-7.7,0c-0.3,0-0.6,0.1-0.8,0.3
			c-0.3,0.3-0.6,0.6-1,1.1c0,0.7,0,1.5,0,2.6c1.1-0.4,2.4,0.8,3.1-0.8c0.1-0.1,0.4-0.1,0.7-0.1c0.5,0,1,0,1.4,0
			c2.1,0,2.8,0.7,2.8,2.8C341.3,70.4,341.3,70.7,341.4,71.2z"/>
		<path class="st2" d="M407.2,39.8c-0.8,0.8-1.3,1.6-2.1,2.1c-0.8,0.5-1.1,1.8-2.4,1.4c-0.4-0.1-0.8,0-1.2,0c-0.7,0-1.6,0.2-1.4-1
			c-2.3,0-4.5,0-6.8,0c0,1.1-0.7,1-1.5,1c-1.4,0-2.7,0-4.1,0c-0.6,0-1.5-0.4-1.7,0.8c0,0.2-1,0.2-1.7,0.3c-0.1,1.2-1,1-1.9,0.9
			c0-0.1,0.1-0.2,0.1-0.3c-0.6-0.2-1.2-0.6-1.8-0.6c-1.3-0.1-2.4-0.7-2.9-2c-3.2,0-6.4,0-9.4,0c-1.1-1.9-2.8-0.5-4.2-1.1
			c0,1.7-1.3,0.9-2.1,1.2c0,0.6-0.1,1.1-0.1,1.4c-0.8,0.8-1.4,1.5-2,2.1c-0.4,0.4-0.8,0.9-1.2,1.3c-0.1,0.1-0.7-0.1-0.7-0.1
			c-0.1-1.1-0.9-0.7-1.4-0.7c-3.8,0-7.7,0-11.5,0c0,0.1,0.1,0.3,0.1,0.4c-0.5,0.2-0.9,0.5-1.4,0.6c-1.9,0.1-3.8,0-5.7,0
			c0,0.9-0.6,1-1.3,1c-1.9-0.1-3.8,0-5.7,0c0.1-1.3-0.8-1-1.5-1c-0.7,0-1.6,0.3-1.6-0.9c-3.6,0-7.1,0-10.4,0c-0.7,0.7-1.6,1.2-2,1.9
			c-0.8,1.3-1.9,0.9-3,1c-0.1,0-0.4,0.1-0.4,0.2c-0.1,0.9-0.8,0.7-1.4,0.7c-1.4,0-2.5,0.7-2.9,2.1c-0.8,0-1.6,0-2.4,0
			c-0.6,0-1.4-0.4-1.6,0.7c0,0.1-0.5,0.2-0.7,0.2c-1,0-1.9,0-2.8,0c-0.4-0.4-0.7-0.8-1.3-1.4c0-0.2,0-0.8,0-1.3
			c-1.1-0.9-2.5-1.4-2.2-2.9c-0.8-0.8-1.5-1.5-2.4-2.4c-4.4,0-9.1,0-13.7,0c-0.4,0-0.7,0.5-1,1c-0.9,0-1.7,0-2.6,0
			c-0.5,1.8-2.1,0.5-3,1.1c-0.5,1.6-2,0.5-3,1c0,0.8-0.5,0.9-1.3,0.9c-0.8,0-1.7-0.4-2.1,0.8c-0.1,0.2-0.8,0.1-1.2,0.1
			c-0.4,0-0.9,0-1.4,0c-0.1,0.4-0.2,0.6-0.3,1.1c-1.2,0-2.4,0-3.7,0c-0.7,0-1.3,0-1.3,1c-2,0-3.9,0-5.7,0c0,0.1,0.1,0.3,0.1,0.4
			c-0.5,0.2-0.9,0.5-1.4,0.5c-1.6,0.1-3.1,0-4.7,0c-0.6,1.9-2,0.6-3.1,1.1c0.1-1.4-0.8-1.1-1.6-1.1c-1.3,0-2.4-0.7-2.8-2
			c-0.6,0-1.2,0-1.8,0c-0.5,0-1,0.1-1-0.7c0-0.1-0.2-0.3-0.3-0.3c-1.2-0.4-2.3-0.8-3.6-1.2c0-0.8-0.6-0.8-1.3-0.8c-3.5,0-7,0-10.6,0
			c-0.5,0-1.2-0.2-1.2,0.7c0,0.1-0.3,0.3-0.4,0.3c-1.2-0.4-1.6,0.9-2.4,1.2c-0.2,0.1-0.2,0.5-0.3,0.9c-0.6,0-1.1,0-1.6,0
			c-0.7-1.3-1.6-2.1-3.3-2c-2.6,0.2-5.2,0-7.8,0c-0.5,0-1.1,0.2-1.3-0.7c-0.1-0.3-1-0.3-1.7-0.5c-0.4-0.5-1-1.1-1.6-1.8
			c-3.2,0-6.6,0-9.9,0c-0.2,0-0.4,0-0.5,0.1c-0.6,1.6-2,0.6-3.1,1c0,1.4-1.2,0.7-1.8,1.1c-0.3,0.3-0.7,0.6-1,0.8
			c-0.1,0.1-0.3,0.1-0.3,0.2c0,0.9-0.1,1.7-1.1,2.2c-0.5,0.3-0.6,1-1.1,1.3c-0.8,0.6-1.6,1.2-2.1,2.1c0,0.1-0.3,0.1-0.5,0.1
			c-0.2,0-0.4-0.1-0.6,0c-1,0.5-2,1.1-3.1,1.7c0.1,0.1,0.1,0.2,0.2,0.3c-0.9,0-1.7,0-2.7,0c0,1.4-1.1,1-1.8,1
			c-0.6,0-1.5-0.3-1.4,0.9c-0.9-0.1-1.9,0.6-2.1-0.9c-0.6,0-1.2,0-1.8,0c-0.6,0-1.2,0-1.9,0c0-1.5-1.2-0.8-2-1.1
			c0-0.8-0.5-1.1-1.3-1c-0.2,0-0.5,0-0.6-0.1c-0.4-1.3-1.6-0.7-2.4-0.9c-0.4-0.1-0.8-0.4-1.1-0.8c-0.6-0.5-1.8,0.4-1.8-1.1
			c-0.6,0-1.2-0.1-1.8-0.1c-0.5-1.8-2.1-0.5-3-1.1c-0.4-1.2-1.4-1.9-2.7-2c-0.6,0-1.3,0.3-1.5-0.7c0-0.1-0.5-0.2-0.8-0.2
			c-3.4,0-6.7,0-10.1,0c-0.3,0-0.7,0.3-1,0.5c-0.2,0.1-0.5,0.4-0.7,0.4c-0.7,0.1-1.4,0-2,0c-0.4,1-0.4,1-2,1.1
			c-0.5,0.6-1,1.2-1.6,1.9c-0.4,0-0.9,0-1.4,0c-0.7,1-1.2,2-2.6,2.1c-0.7,0.1-1.3,1.1-1.8,1.9c-0.6,0-1.1,0.1-1.8,0.1
			c0.1,1-0.6,1-1.3,1c-0.8-0.1-1.9,0.5-1.9-1c-5.4,0-10.8,0-16.1,0c-0.2,0-0.5,0.1-0.5,0.1c-0.2,1.3-1.2,0.7-2.2,0.9
			c0-1.7,0-3.3,0-4.9c0-0.7,0-1.4-1-1.3c0-6,0-11.9,0-18c0.5,0,0.9,0,1.3,0c7.7,0,15.4,0,23.2,0c0.6,0,1.4,0.4,1.5-0.8
			c0-0.1,0.6-0.2,1-0.2c2.9,0,5.8,0,8.8,0c0-0.9,0.5-1,1.3-1c4.2,0,8.4,0,12.6,0c0.5,0,1.1,0.2,1.3-0.6c0-0.2,0.7-0.3,1.1-0.3
			c6.8,0,13.7,0,20.5,0c4.7,0,9.4,0,14,0c0.8,0,1.3-0.1,1.3-1.1c1.2,0,2.3,0,3.4,0c6.1,0,12.2,0,18.2,0c0.7,0,1.5,0.1,1.3-1
			c6,0,11.9,0,17.8,0c0.8,0,2,0.7,2.3-0.8c0-0.1,0.7-0.1,1-0.1c5.8,0,11.5,0,17.3,0c0.4,0,0.9,0,1.4,0c0-1.3,0.8-1,1.6-1
			c34.8,0,69.7,0,104.5,0c0.8,0,1.9,0.6,2.2-0.8c0-0.1,0.7-0.2,1.1-0.2c6.1,0,12.2,0,18.2,0c0.6,0,1.4,0.3,1.6-0.7
			c0-0.1,0.7-0.2,1.1-0.2c4.6,0,9.1,0,13.7,0c8.2,0,16.4,0,24.6,0c0.4,0,0.8-0.1,1.1,0.1c0.2,0.1,0.3,0.6,0.2,0.8
			c-0.2,0.4-0.5,0.6-0.8,0.9c-0.5,0.4-1.1,0.8-1.6,1.3c-0.5,0.5-0.8,1.4-1.4,1.6c-1.1,0.4-0.9,1.2-0.9,2.1c-1.5,0-0.9,1.2-1,1.6
			c-0.8,0.9-1.4,1.5-2,2.2c-0.4,0.5-0.8,1-1.3,1.3C407.9,37.9,407,38.6,407.2,39.8z"/>
		<path class="st0" d="M423,100.3c-0.5,0-1,0-1.5,0c-1.8,1.2-2.1,3.4-3.6,5c-0.5,0.3-1.8-0.5-1.8,1c-1.5-0.2-2.2,0.6-3,1.7
			c-0.4,0.6-1.1,0.9-1.6,1.3c-0.5,0.4-0.9,0.9-1.3,1.4c-0.5,0.6-1.1,1.1-1.6,1.6c-0.5,0.5-0.9,1-1.3,1.5c-1.1,1.2-2.3,2.4-3.5,3.5
			c-0.8,0.8-1.7,1.5-2.5,2.3c-0.7,0.7-1.3,1.4-2.1,2.2c0,0.3,0,0.8-0.1,1.4c-0.6,0-1.2,0.1-1.8,0.1c0,0.6-0.1,1.2-0.1,1.8
			c-1.6-0.1-0.6,1.3-1.2,2.1c-0.3,0-0.7-0.1-1.1,0c-0.2,0.1-0.6,0.3-0.7,0.5c-0.1,0.7,0.1,1.5-1,1.7c-0.1,0-0.1,0.5-0.2,0.8
			c-0.5,0-1,0-1.6,0c-0.4,1.5-2.8,1.7-2.2,3.6c-0.5,0.5-0.9,0.8-1.5,1.4c-1.2-0.2-1.7,1-2.6,1.8c-0.7,0.6-1.2,2.1-2.7,1.1
			c-0.1,0.4-0.2,0.6-0.2,0.7c0.2,1.3-1,1.7-1.6,2.4c-0.5,0.6-1.1,1.2-1.8,2c-0.3,0-0.9,0-1.2,0c-1.7,1.7-3.2,3.3-4.9,5
			c-0.2,0-0.7,0-1.1,0c-2.8,2.8-5.6,5.6-8.5,8.5c0.3,0.8-0.4,1.4-1,2.1c-0.6,0.6-1.2,1.1-1.9,1.8c0.2,1.2-0.7,2-1.8,2.7
			c-0.6,0.4-0.9,1.1-1.3,1.6c-0.1,0.1-0.4,0.3-0.5,0.2c-0.2-0.1-0.4-0.4-0.4-0.6c-0.1-0.6,0.2-1.4-0.8-1.5c-0.1,0-0.2-0.7-0.2-1.1
			c0-6.6,0-13.1,0-19.7c0-8.6,0-17.3,0-25.9c0-0.5-0.2-1.2,0.7-1.3c0.1,0,0.3-0.5,0.3-0.8c0-5.1,0.1-10.2-0.1-15.4
			c0-0.7-1.1-1.5-1.6-2.2c-0.1,0.1-0.2,0.1-0.3,0.2c0-0.6,0-1.1,0-1.4c0.7-0.7,1.3-1.5,2-2c0.7-0.5,1-1.7,2.3-1.5
			c0.4,0.1,0.9-0.5,1.3-0.9c0.6-0.6,1.1-1.3,1.7-2c0.3,0,0.8,0,1.3,0c0.9-1,1.6-2.3,3.2-2c0-0.1-0.1-0.2-0.1-0.3
			c0.5-0.2,0.9-0.4,1.4-0.7c0.3-0.2,0.6-0.4,0.9-0.6c0.1-0.1,0.2-0.3,0.3-0.3c1.2,0.4,1.7-0.7,2.3-1.2c0.6-0.5,1-1.2,1.6-1.9
			c0.4,0,1,0,1.2,0c0.8-0.8,1.4-1.4,2-2c0.5-0.5,1-1.1,1.5-1.6c0.5-0.5,1-0.9,1.5-1.4c0.4-0.4,1-0.7,1.3-1.1c0.7-1.2,1.8-2,2.9-2.9
			c0.7-0.6,1-1.6,1.3-2.6c0.4-0.4,0.8-0.7,1.4-1.2c1.2,0.3,1.8-0.9,2.6-1.7c0.8-0.9,1.8-1.6,2.7-2.4c0.7-0.7,1.5-1.4,2.1-2.2
			c0.3-0.4,0.1-1,0.3-1.4c0.6-0.7,1.2-1.4,1.9-2.1c0.4-0.4,0.7-0.9,1.1-1.2c0.5-0.4,1.2-0.7,1.7-1.2c0.7-0.6,1.4-1.3,2-2.1
			c0.3-0.4,0.2-1.1,0.2-1.5c1-0.9,1.9-1.8,2.9-2.7c0-0.3,0-0.8,0-1c0.8-0.9,1.4-1.6,2-2.2c0.4-0.4,0.7-0.8,1.1-1.2
			c0.9-0.8,1.8-1.5,2.7-2.3c0.7-0.7,1.5-1.4,2.1-2.2c0.3-0.4,0.1-1,0.1-1.2c0.8-0.8,1.4-1.4,2.1-2.1c0.4-0.4,0.7-0.9,1.1-1.3
			c0.5-0.5,1.1-0.8,1.6-1.2c0.2-0.1,0.2-0.5,0.2-0.8c0-0.6-0.2-1.4,1-1.2c0-0.7,0-1.2,0-1.8c0.9-0.5,1.8-1,2.7-1.5
			c0.1,0.1,0.2,0.1,0.2,0.2c0-0.6,0.1-1.2,0.1-1.5c0.7-0.7,1.3-1.4,2-1.9c0.7-0.5,1-1.8,2.3-1.5c0.2,0,0.5-0.3,0.8-0.5
			c0.2-0.1,0.4-0.3,0.6-0.4c0.1,0,0.3,0.3,0.3,0.5c0,1,0.1,1.9,0,2.9c0,0.3-0.5,0.5-0.9,0.9c0,5.8,0,11.8,0,17.8
			c0,0.2,0,0.5,0.1,0.6c1.4,0.4,0.7,1.5,0.9,2.4c0.1,0.4,0.4,0.8,0.6,1.2c0.1,0,0.2-0.1,0.3-0.1c0,1.9,0,3.7,0,5.7
			c0.9,0.1,1,0.5,1,1.3c-0.1,3.2,0,6.5,0,9.7c0,0.5-0.2,1.1,0.6,1.2c0.1,0,0.3,0.4,0.3,0.7c0,6.4,0,12.7,0,19.2c-1,0-1,0.6-1,1.3
			c0,1.5,0,3.1,0,4.7c-0.7,0-1.2,0.1-1.5,0.1C425,96.7,424.1,98.5,423,100.3z M385.2,105.5c0.4-0.3,1-0.5,1-0.6
			c-0.4-1.1,0.7-1.6,1.1-2.3c0.3-0.6,0.9-0.9,1.4-1.4c0.6-0.6,1.2-1.2,2-1.9c0.3,0,0.8,0,1.3-0.1c0.2-0.4,0.3-0.7,0.5-0.9
			c0.9-0.8,2.1-1.4,1.7-2.7c0.5-0.5,0.9-0.8,1.5-1.4c0.2,0,0.8,0,1.3,0c-0.1-0.1-0.2-0.2-0.3-0.3c2.2-0.9,2.2-3.3,3.9-4.8
			c1.3,0.8,1.7-0.8,2.5-1.3c0.6-0.4,1-1.1,1.6-1.6c0.4-0.4,0.9-1,1.2-0.9c1.3,0.2,1.5-1.1,2.2-1.5c0.5-0.3,0.8-1,1.2-1.5
			c0.3-0.4,0.8-0.9,1.2-1c0.9-0.1,1.4-0.3,2.1-1c0.8-0.9,1.9-1.5,1.6-2.9c0.4-0.2,0.7-0.3,0.9-0.5c0.6-0.5,1.1-1.1,1.6-1.7
			c0.5-0.5,1-1.1,1.4-1.7c0.3-0.5,0.5-1.2,0.7-1.7c0.1,0,0.2,0.1,0.3,0.1c0-0.5,0.1-1.1,0.1-1.7c0.7,0,1.2,0,1.8,0c0-1,0-1.9,0-2.5
			c-0.5-0.6-0.9-0.9-1.3-1.4c-0.7,0-1.6,0-2.2,0c-0.5,0.5-0.8,0.9-1.4,1.5c0,0.6,0,1.4,0,2.4c-1.6,0-0.8,1.2-1.2,1.8
			c-1.2,1.2-2.5,2.4-3.9,3.8c0,0.3,0,0.8,0,1.4c-0.1,0-0.2-0.1-0.2-0.1c-0.3,0.4-0.7,0.8-1.1,1.2c-0.4,0-0.9,0-1.2,0
			c-1.4,1.4-2.6,2.6-4,4c-0.2,0-0.8,0-1.5,0c0.6,1.2-0.6,0.8-0.9,1.2c-1,1.2-1.7,2.8-3.7,2.8c-0.1,0-0.2,0.3-0.4,0.5
			c-0.6,0.6-1.2,1.2-1.8,1.8c-0.3,0.6,0.2,1.7-1.1,1.8c0,1.1-0.8,0.8-1.5,0.9c-0.2,0-0.5,0.3-0.7,0.5c-0.6,0.6-1.2,1.2-1.9,1.9
			c0,0.4,0,0.9-0.1,1.5c-0.9,0.5-1.8,0.9-2.6,1.4c-0.3,0-0.3,0.3-0.4,0.4c-0.7,0.8-1.5,1.5-2.2,2.3c-0.3,0.3-0.6,0.8-1,1
			c-1.1,0.6-1.9,1.4-1.8,2.5c-1.2,1.5-3.2,2.1-3,4.2c-0.6,0.5-1.2,1-1.8,1.6c0.1,2.1-1.9,2.7-3.1,4.2c0,0.9,0,2.1,0,3.4
			c1,0,1.9,0,2.9,0c-0.2-2.3,1.8-2.8,2.9-4.4c-0.3-1.5,1.1-2,2.1-2.8c0-0.6,0.1-1.1,0.1-1.7c0.6,0,1.2-0.1,1.9-0.1
			C385.2,106.5,385.2,106,385.2,105.5z"/>
		<path class="st2" d="M34.7,82.3c0.4,0,0.8,0,1.1,0c0.8-0.8,1.6-1.3,2.1-2.1c0.5-0.8,1.2-0.9,2-1c0.4,0,0.8-0.6,1.2-1
			c0.4-0.5,0.8-1,1.2-1.5c0.5-0.5,1-0.9,1.5-1.4c0.6-0.7,1.7-0.7,2.2-1.2c1.1-1,2.9-0.9,3.5-2.7c0.2-0.7,1.6-1,2.5-1.3
			c0.9-0.6,1.2-1.9,2.7-1.9c0.5,0,1-0.6,1.4-1c0.5-0.5,0.8-1.1,1.2-1.6c0.4-0.4,0.9-0.8,1.2-1.3c0.5,0,1,0,1.4,0
			c0.6-0.7,1.1-1.2,1.6-1.9c2.5-0.1,3.2-2.7,4.9-4.1c0.6,0,1.1,0,1.3,0c0.9-0.8,1.6-1.4,2.2-2.1c0.5-0.8,1.2-0.9,2-1
			c0.5-0.1,0.9-0.8,1.3-1.3c0.8-0.8,1.4-1.8,2.2-2.5c0.3-0.3,1.1-0.1,1.6-0.2c0.4-1.2,1.5-1.8,2.9-2c0.5-0.7,1-1.3,1.6-2
			c0.4,0,1,0,1.2,0c0.9-0.8,1.5-1.4,2.2-2c0.3-0.3,0.6-0.6,0.9-1c0.5-0.9,1.3-1,2.2-1c0.2,0,0.3-0.6,0.5-0.9c1.4,0.3,2-0.7,2.8-1.7
			c0.4-0.5,0.9-0.8,1.4-1.3c0.2-0.2,0.4-0.5,0.6-0.8c0.2-0.4,0.3-0.7,0.5-1.1c0.2,0.4,0.5,0.8,0.5,1.2c0,4.7,0,9.4,0,14.2
			c0,0.4,0,0.9,0,1.4c1.5,0.1,1,1.1,1,1.9c-1.8,0.5-0.6,2-1.2,3.1c-0.9,0.6-2,1.1-1.9,2.6c0,0.2-0.5,0.5-0.9,0.9c0,0.4,0,0.9,0,1.5
			c-0.3,0.1-0.7,0.2-1,0.3c0,2.6-0.2,5.3,0.1,7.8c0.1,1.3-0.5,2.4-1.2,2.8c-1.2,0.5-0.7,1.3-0.9,2c-1.6,0.8-3.7-0.7-5.3,1.2
			c-0.9,0-2.1,0-3.4,0c-0.1,0.4-0.2,0.7-0.4,1.1C77,78.9,75.6,80,74,80.9c0,0.1,0.1,0.2,0.1,0.4c-0.6,0-1.1,0.1-1.7,0.1
			c0,1.5-1.2,0.8-2,1.1c-0.1,1.3-1.1,0.7-1.9,0.9c-0.1,1.3-1.1,0.8-1.9,1c0.2,0.2,0.4,0.4,0.5,0.5c-1.2,0.6-2.3,1.3-3.5,1.9
			c0.1,0.1,0.3,0.3,0.4,0.4c-0.6,0.3-1.8-0.5-1.8,1.1c-1.5-0.2-2.1,0.8-3,1.7c-1.2,1.1-2.3,2.4-4.5,2.4c-10-0.2-19.9-0.1-29.9-0.1
			c-0.4,0-0.7,0.1-1.1-0.1c-0.2-0.1-0.4-0.6-0.3-0.7c0.5-0.5,1-0.9,1.5-1.3c0.4-0.3,0.3-1.3,1.2-1.1c0.2-1.3,1.2-0.7,2-0.9
			c0-1.5,1.2-0.7,1.8-1.1C31.5,85.5,33,84,34.7,82.3z"/>
		<path class="st3" d="M246.5,82.3c0.4,0,1,0,1.4,0c0.8-0.9,1.2-2.2,2.8-2c0.1,0,0.4-0.1,0.4-0.1c0.2-1.2,1.2-0.7,2-0.9
			c0.1-0.3,0.2-0.6,0.2-0.8c1.3-0.6,3.1,0.6,4.3-1.2c1,0,2.1,0,3.3,0c0-0.1-0.1-0.2-0.1-0.3c0.4-0.2,0.8-0.6,1.2-0.6
			c4.2,0,8.4,0,12.6,0c0.2,0,0.3,0,0.5,0.1c-0.2,1.6,0.7,2.4,2,3.2c0,0.8,0,1.7,0,2.4c-1,1.4-2.4,1.6-3.7,1.3
			c-0.3,0.4-0.5,0.7-0.7,1c-0.2-0.2-0.4-0.5-0.6-0.7c-0.2-0.2-0.5-0.3-0.8-0.3c-1,0-1.9,0-2.9,0c-0.6,0-1.4-0.3-1.4,0.8
			c0,0.1-0.5,0.2-0.8,0.2c-1.6,0-3.2,0-4.8,0c-0.7,0-1.5-0.2-1.3,0.9c-0.8,0.3-1.9-0.3-2.1,1c0,0-0.1,0.1-0.2,0.1
			c-1.7-0.3-1.8,0.8-1.7,1.7c-1.1,0.5-2,1-2.9,1.5c0,0.6,0,1.2,0,1.8c0,0.5,0.1,1.1-0.7,1.1c-0.1,0-0.3,0.6-0.3,0.9c0,1.6,0,3.3,0,5
			c-0.5,0-0.9,0.1-1.3,0.1c-3.5,0-7,0-10.6,0c-0.5,0-1.1,0.2-1.2-0.6c0-0.1-0.6-0.3-0.9-0.3c-1.4,0-2.8,0-4.2,0
			c-0.3,0-0.5-0.2-0.8-0.3c0.2-0.2,0.4-0.5,0.5-0.7c0.4-0.4,0.8-0.9,1.4-1.5c0-0.2,0-0.7,0-1.2c0.1,0,0.3,0.1,0.4,0.1
			c0.2-0.5,0.4-1,0.6-1.5c0.4-0.6,0.8-1.3,1.3-1.8c0.6-0.6,1.2-1.2,1.8-1.8c0.5-0.5,1.1-0.8,1.6-1.3c0.3-0.3,0.7-0.6,0.9-1
			c0.5-0.9,1.2-0.9,2.1-1c0.4-0.1,0.8-0.6,1.2-1C245.5,83.6,246,82.9,246.5,82.3z"/>
		<path class="st3" d="M90.2,90.9c0-0.4,0-0.9,0-1.5c0.6-0.1,1.4-0.1,1-1.1c0.7,0,1.2,0,1.6,0c1.2-1.9,2.9-0.6,4-1
			c0.5,0.5,0.9,0.9,1.4,1.4c-0.2,1.2,0.7,1.9,1.7,2.7c0.2,0.1,0.3,0.4,0.3,0.5c-0.1,0.2-0.3,0.3-0.5,0.3c-0.8,0-1.6,0-2.4,0
			c-2.3,0-4.5,0-6.8,0c-0.4,0-0.7-0.2-1.1-0.4C89.6,91.6,89.8,91.3,90.2,90.9z"/>
		<path d="M140.1,123.3c0-1,0.5-1.1,1.3-1.1c4.8,0,9.7,0,14.5,0c0.5,0,1.2,0.3,1.4-0.7c0-0.1,0.7-0.2,1-0.2c3.6,0,7.1,0,10.7,0
			c0.5,0,1.2,0.2,1.2-0.7c0-0.1,0.7-0.3,1-0.3c3,0,5.9,0,8.9,0c0.4,0,0.8-0.3,1.3-0.5c0-0.1-0.1-0.3-0.1-0.4c2.2,0,4.5,0,6.7,0
			c0-0.1-0.1-0.3-0.1-0.4c0.5-0.2,0.9-0.6,1.4-0.6c3.9,0,7.8,0,11.8,0c0.5,0,1.1,0.2,1.2-0.6c0-0.2,0.6-0.3,1-0.4c2.2,0,4.3,0,6.5,0
			c9.8,0,19.5,0,29.3,0c0.6,0,1.4-0.2,1.2,1c2.3,0,4.6,0,6.9,0c0,1,0,1.9,0,3c-1.7,0-3.4,0-5.1,0c-1.2,0-2.3,0-3.5,0
			c-0.7,0-1.5,0.1-1.4-1c-10.6,0-21.1,0-31.7,0c-0.1,0.3-0.2,0.6-0.3,1c-4.1,0-8.2,0-12.2,0c-0.6,0-1.5-0.4-1.7,0.8
			c0,0.1-0.6,0.2-0.9,0.2c-1.6,0-3.1,0-4.7,0c-0.7,0-1.5-0.1-1.5,1c-3.6,0-7.1,0-10.7,0c0.1,1-0.6,1-1.3,1c-3.5,0-7,0-10.6,0
			c-0.7,0-1.3,0-1.4,1c-5.6,0-11.1,0-16.7,0c0.1,1.3-0.8,1-1.5,1c-20.6,0-41.3,0-61.9,0c-0.5,0-1,0-1.4,0c0,0.1,0.1,0.3,0.1,0.4
			c-0.6,0.2-1.1,0.6-1.7,0.6c-5.8,0-11.6,0-17.4,0c-0.8,0-1.3-0.1-1.4-1.1c-1.6,0-3.1,0-4.7,0c0-1,0-1.9,0-2.9c2.1,0,4.2,0,6.4,0
			c0.1,0,0.3,0.1,0.3,0.1c0.2,1.4,1.3,0.8,2,0.8c4.3,0,8.6,0,12.9,0c0.1-0.3,0.2-0.6,0.3-1C97,123.3,118.5,123.3,140.1,123.3z"/>
		<path d="M284.1,59.1c-0.4,0.2-0.6,0.4-0.9,0.6c-1.1,0.9-1,2.5-2,3.4c-0.2,0.2-0.6,0.2-0.9,0.4c0,0.6-0.1,1.1-0.1,1.7
			c-1,0-1.9,0-2.9,0c0-1.1,0-2.3,0-3.4c0-0.1,0.1-0.4,0.2-0.4c1.2-0.1,0.9-1.1,0.7-1.6c-0.2-1.3,0.9-1.7,1.5-2.4
			c1.6-2,3.8-0.7,5.7-1c0.2,0,0.6,0.2,0.8,0.4c0.3,0.3,0.6,0.6,1,1.1c0,0.3,0,0.8,0,1.3c0.1,0,0.2-0.1,0.3-0.1
			c0.2,0.5,0.5,0.9,0.6,1.4c0.2,0.7-0.4,1.8,0.9,2.1c0.1,0,0.1,0.4,0.1,0.7c0,1,0,2,0,3.1c-1,0-1.9,0-2.9,0
			c-0.1-0.6-0.1-1.1-0.2-1.8c-0.9,0-1-0.6-1-1.3c0-0.7,0.4-1.6-0.7-2C284.2,61,284.2,60,284.1,59.1z"/>
		<path d="M230.3,76.2c-1.1,0-2,0-2.9,0c-0.4-1.1-1.6-2-2.6-1.9c-0.8,0-1.8-0.3-1.8,1c-0.6,0-1.1,0-1.6,0c0,0.1,0.1,0.1,0.1,0.2
			c-0.3,0.3-0.7,0.5-1,0.8c-0.2,0.2-0.3,0.6-0.3,0.9c-0.1,2.1-0.1,2.1-2.2,2.1c-0.2,0-0.4,0-0.7-0.1c0-2,0-3.9,0-5.9
			c0.5,0,1.1-0.1,1.5-0.1c0.6-0.7,1.1-1.2,1.7-1.9c2.7,0,5.6,0,8.6,0c0,0.6,0.1,1.1,0.1,1.7C231.1,73.6,229.9,75,230.3,76.2z"/>
		<path d="M335.5,87.2c-0.3-1.4-0.3-1.4,1-4.9c2.2,0,4.4,0,6.4,0c0.4,0.4,0.8,0.8,1.1,1.2c0.4,0.6-0.2,1.7,1.1,2
			c0.1,0,0.1,0.4,0.1,0.7c0,0.9,0,1.8,0,2.6c0,0.6,0.3,1.4-0.7,1.6c-0.2,0-0.2,0.5-0.4,0.9c-0.4,0-0.8,0-1.3,0c-2.8,0-2.8,0-2.5-2.9
			c0.1,0,0.3-0.1,0.4-0.1c0.2,0,0.3-0.1,0.6-0.1c0-0.7,0-1.4,0-2c0-0.3-0.3-0.6-0.4-0.8c-0.2,0.2-0.4,0.3-0.6,0.5
			c-0.1,0.1-0.1,0.2-0.2,0.3c-0.7,0.3-1.7-0.3-2.1,1C337.8,87.4,336.3,87.2,335.5,87.2z"/>
		<path d="M362.2,73.2c-0.4,0-0.7,0.1-1,0.1c-1.3,0-2.5,0-3.9,0c0-1,0-1.9,0-2.9c0.6,0,1.2-0.1,2-0.1c0-1.1-2-1.4-0.7-2.9
			c-1.5,0-2.6,0-3.7,0c-0.2,0-0.4,0-0.4,0.1c-0.7,1.7-2.1,0.3-3.1,1c0-1.2,0-2.1,0-2.8c0.4-0.4,0.7-0.7,1-1c0.2-0.2,0.4-0.3,0.7-0.3
			c2.4,0,4.7,0,6.8,0c0.5,0.5,0.9,0.9,1.4,1.4c0,0.2,0,0.8,0,1.3c0.1,0,0.3-0.1,0.4-0.1c0.2,0.5,0.5,1,0.6,1.5
			C362.3,70,362.2,71.6,362.2,73.2z"/>
		<path d="M127.3,80.3c0-2.4,0-4.6,0-6.8c1.9-0.5,0.4-2.1,1.2-3.1c2.7,0,5.6,0,8.4,0c1.3,0.9,1.6,2.2,1.2,3.9c-0.8,0-1.5,0-2.3,0
			c-0.1,0-0.4-0.1-0.4-0.1c-0.5-1.6-1.7-0.6-2.6-0.7c-0.3,0-0.8,0.5-1.1,0.9c-0.6,0.8-1.7,1.3-1.4,2.7c0.2,0.7,0,1.4,0,2.1
			c0.1,1-0.3,1.3-1.2,1.2C128.5,80.2,127.9,80.3,127.3,80.3z"/>
		<path d="M200.4,89.2c-1.5,0-2.7,0-3.9,0c-0.8-0.9,0.7-2.6-0.8-3c-0.6-1.1-1.1-2-1.5-2.9c-0.9,0-1.7,0-2.6,0c-0.6,1.8-2,0.6-3.2,1
			c0-1.4,0-2.6,0-4.1c1,0,2,0,3,0c1,0,2,0.1,3,0c1.5-0.2,2.2,0.7,3,1.8c0.5,0.6,1.2,1,1.9,1.6c0,0.3,0,0.9,0,1.3
			C201.2,86,199.7,87.7,200.4,89.2z"/>
		<path d="M158.1,79.3c-1.1,0-2.2-0.2-3.2,0.1c-0.6,0.2-1.7,0.7-1.6,1.8c0,0.3,0,0.6-0.1,1c-0.9,0-1.8,0-2.9,0
			c0-1.1-0.2-2.3,0.1-3.3c0.1-0.6,0.9-1,1.4-1.6c1.4-1.7,3.2-0.8,4.9-0.9c1.1-0.1,2.3,0,3.2,0c0.5,0.5,0.9,0.9,1.3,1.2
			c0.4,0.6-0.3,1.8,1.1,1.9c0,1.6,0,3.1,0,4.8c-1,0-1.9,0-3,0c0-0.6,0-1.1,0-1.6c0-0.5,0.3-1.2-0.7-1.4
			C158.3,81.1,158.2,80,158.1,79.3z"/>
		<path d="M310.3,71.7c0.5-0.5,0.9-0.8,1.4-1.3c1.9,0,4.1,0,6,0c0.5,0.5,0.9,0.9,1.4,1.3c0,0.3,0,0.8,0,1.3c2,1,0.5,2.8,1,3.8
			c-0.5,0.5-0.9,0.9-1.4,1.4c-0.9,0-2.1,0-3.6,0c0-0.8,0-1.6,0-2.4c0-0.1,0.1-0.4,0.2-0.4c1.4-0.2,0.7-1.2,0.8-2c-1,0-1.9,0-2.9,0
			c0,0.9,0,1.8,0,2.8c-1,0-2,0-3,0C310.3,74.6,310.3,73.1,310.3,71.7z"/>
		<path d="M341.4,71.2c0-0.4-0.1-0.8-0.1-1.1c0-2.1-0.7-2.8-2.8-2.8c-0.5,0-1,0-1.4,0c-0.2,0-0.6,0-0.7,0.1c-0.7,1.7-2,0.4-3.1,0.8
			c0-1.1,0-1.9,0-2.6c0.4-0.4,0.7-0.8,1-1.1c0.2-0.2,0.5-0.3,0.8-0.3c2.6,0,5.3,0,7.7,0c0.7,0.7,1.3,1.3,1.9,1.9
			c0.2,0.2,0.4,0.4,0.4,0.6c0,1.4,0,2.9,0,4.3C343.8,71.2,342.6,71.2,341.4,71.2z"/>
		<path d="M385.2,105.5c0,0.5,0,1,0,1.6c-0.7,0-1.2,0.1-1.9,0.1c0,0.6-0.1,1.2-0.1,1.7c-1,0.8-2.4,1.3-2.1,2.8
			c-1.1,1.5-3.2,2.1-2.9,4.4c-1,0-1.9,0-2.9,0c0-1.3,0-2.5,0-3.4c1.2-1.5,3.2-2.2,3.1-4.2c0.6-0.6,1.2-1,1.8-1.6
			c-0.1-2.1,1.8-2.7,3-4.2c-0.2-1.2,0.6-1.9,1.8-2.5c0.4-0.2,0.7-0.7,1-1c0.7-0.8,1.5-1.5,2.2-2.3c0.1-0.2,0.1-0.4,0.4-0.4
			c0.9-0.5,1.7-0.9,2.6-1.4c0-0.5,0.1-1.1,0.1-1.5c0.7-0.7,1.3-1.3,1.9-1.9c0.2-0.2,0.4-0.4,0.7-0.5c0.6-0.1,1.4,0.2,1.5-0.9
			c1.3-0.2,0.7-1.2,1.1-1.8c0.6-0.6,1.2-1.2,1.8-1.8c0.1-0.2,0.3-0.5,0.4-0.5c1.9,0,2.7-1.6,3.7-2.8c0.3-0.4,1.5,0,0.9-1.2
			c0.7,0,1.3,0,1.5,0c1.4-1.4,2.6-2.7,4-4c0.3,0,0.8,0,1.2,0c0.4-0.5,0.8-0.9,1.1-1.2c0.1,0,0.2,0.1,0.2,0.1c0-0.5,0-1.1,0-1.4
			c1.4-1.4,2.7-2.6,3.9-3.8c0.4-0.6-0.4-1.8,1.2-1.8c0-1,0-1.8,0-2.4c0.5-0.6,0.9-1,1.4-1.5c0.7,0,1.5,0,2.2,0
			c0.5,0.5,0.8,0.9,1.3,1.4c0,0.6,0,1.5,0,2.5c-0.6,0-1.1,0-1.8,0c0,0.6-0.1,1.2-0.1,1.7c-0.1,0-0.2-0.1-0.3-0.1
			c-0.2,0.6-0.4,1.2-0.7,1.7c-0.4,0.6-0.9,1.1-1.4,1.7c-0.5,0.6-1,1.2-1.6,1.7c-0.2,0.2-0.6,0.3-0.9,0.5c0.3,1.4-0.8,2-1.6,2.9
			c-0.6,0.7-1.2,1-2.1,1c-0.4,0-0.8,0.6-1.2,1c-0.4,0.5-0.7,1.2-1.2,1.5c-0.8,0.5-0.9,1.7-2.2,1.5c-0.4-0.1-0.9,0.5-1.2,0.9
			c-0.5,0.5-0.9,1.3-1.6,1.6c-0.8,0.5-1.2,2-2.5,1.3c-1.6,1.5-1.7,3.9-3.9,4.8c0.1,0.1,0.2,0.2,0.3,0.3c-0.5,0-1.1,0-1.3,0
			c-0.6,0.6-1,0.9-1.5,1.4c0.4,1.3-0.8,1.9-1.7,2.7c-0.2,0.2-0.3,0.6-0.5,0.9c-0.5,0-1.1,0-1.3,0.1c-0.8,0.8-1.4,1.3-2,1.9
			c-0.5,0.5-1.1,0.8-1.4,1.4c-0.4,0.7-1.5,1.2-1.1,2.3C386.2,105,385.6,105.3,385.2,105.5z"/>
	</g>
</g>
</svg>
