<?xml version="1.0" encoding="utf-8"?>
<!-- Generator: Adobe Illustrator 19.1.0, SVG Export Plug-In . SVG Version: 6.00 Build 0)  -->
<svg version="1.1" id="Layer_1" xmlns="http://www.w3.org/2000/svg" xmlns:xlink="http://www.w3.org/1999/xlink" x="0px" y="0px"
	 viewBox="0 0 217.3 231" style="enable-background:new 0 0 217.3 231;" xml:space="preserve">
<style type="text/css">
	.st0{fill:#FDBA16;stroke:#000000;stroke-miterlimit:10;}
</style>
<path class="st0" d="M13.5,68.5c-18,28.7-12,48.7-12,48.7s20,8.7,20.7,12.7c0.7,4-3.3,20-4.7,22.7c-1.3,2.7,3.5,24,4.7,26
	s6.6,30.7,9.9,32c3.3,1.3,58.7,20,58.7,20l64-14l29.3-20.7c0,0,10.7-33.3,10.7-35.3s-20.7-25.3-20.7-25.3l20.7-24
	c0,0,18-25.3,18.7-27.3c0.7-2,3.3-29.3,3.3-29.3s-34-29.3-35.3-32c-1.3-2.7-44-22-44-22L74.8,5.2L32.1,20.5v31.3L13.5,68.5z"/>
</svg>
