<?xml version="1.0" encoding="utf-8"?>
<!-- Generator: Adobe Illustrator 19.1.0, SVG Export Plug-In . SVG Version: 6.00 Build 0)  -->
<svg version="1.1" id="Layer_1" xmlns="http://www.w3.org/2000/svg" xmlns:xlink="http://www.w3.org/1999/xlink" x="0px" y="0px"
	 viewBox="0 0 326.5 124.3" style="enable-background:new 0 0 326.5 124.3;" xml:space="preserve">
<style type="text/css">
	.st0{fill:#ED184A;stroke:#0B0B0B;stroke-width:5;stroke-miterlimit:10;}
</style>
<path class="st0" d="M18.2,12.2c-0.6,1.7-8.3,89-8.3,89l59.1-7.7l-3.9-47.5L18.2,12.2z"/>
<path class="st0" d="M85.6,108.8l-5.5-47.5l24.9-4.7l-3.3,20.3H82.9l43.1,40.2L92.8,79.6c0,0,13.3,4.4,13.3,1.4s4.4-32.9,4.4-32.9
	l-33.1,8.6l-3.9,47.2L85.6,108.8z"/>
<polygon class="st0" points="126.5,64.6 117.1,89.5 135.9,97.2 155.8,85.1 149.2,64.6 "/>
<path class="st0" d="M189,64.6c0,0,0,27.1,0,29.3s-22.1-2.8-22.1-2.8V64.6l4.4,24.3h13.3L189,64.6z"/>
<polygon class="st0" points="223.2,64.6 200.6,67.4 200.6,85.6 226.5,91.7 "/>
<polygon class="st0" points="221,91.7 222.1,106.1 200.6,117.1 235.4,117.1 226.5,61.6 196.7,61.6 196.7,94.5 "/>
<path class="st0" d="M244.8,10.5c-0.3,2,0,84,0,84h-9.4L244.8,10.5z"/>
<polygon class="st0" points="273.8,91.7 273.8,64.6 244.8,64.6 277.3,56.6 "/>
<path class="st0" d="M289.5,89c0,0-2.8-61.9-2.2-63.5l11.3-2.7L289.5,89z"/>
<polygon class="st0" points="301.4,33 263.8,33 254.7,20.3 311.1,20.3 "/>
<path class="st0" d="M23.3,20.3c-0.4,1.3-13.4,80.8-13.4,80.8l54-15.9l-3.1-38L23.3,20.3z"/>
<polygon class="st0" points="134.3,91.7 151.4,80.9 146.4,67.4 128.2,67.4 123.8,87.3 "/>
</svg>
